<svg width="594" height="34" viewBox="0 0 594 34" fill="none" xmlns="http://www.w3.org/2000/svg">
<path d="M1.02539 15H2.25586V10.5088H7.66992V15H8.90039V5.13574H7.66992V9.40137H2.25586V5.13574H1.02539V15ZM13.7129 15.1367C15.6748 15.1367 17.001 13.7148 17.001 11.4453V11.4316C17.001 9.16211 15.668 7.75391 13.7061 7.75391C11.7441 7.75391 10.418 9.16895 10.418 11.4316V11.4453C10.418 13.708 11.7373 15.1367 13.7129 15.1367ZM13.7197 14.084C12.4619 14.084 11.6348 13.1201 11.6348 11.4453V11.4316C11.6348 9.77051 12.4688 8.80664 13.7061 8.80664C14.9639 8.80664 15.7842 9.76367 15.7842 11.4316V11.4453C15.7842 13.1133 14.9707 14.084 13.7197 14.084ZM18.334 15H21.3965C22.9072 15 23.8369 14.2139 23.8369 12.9629V12.9492C23.8369 12.0811 23.249 11.4521 22.3535 11.3291V11.2744C23.0098 11.1377 23.5225 10.4678 23.5225 9.73633V9.72266C23.5225 8.59473 22.709 7.89062 21.376 7.89062H18.334V15ZM19.5234 10.8643V8.875H21.1982C21.9434 8.875 22.3398 9.20996 22.3398 9.8457V9.85938C22.3398 10.543 21.916 10.8643 21.0205 10.8643H19.5234ZM19.5234 14.0156V11.8486H21.082C22.1211 11.8486 22.6201 12.1904 22.6201 12.9219V12.9355C22.6201 13.6465 22.1553 14.0156 21.2939 14.0156H19.5234ZM25.1973 15H27.7197C29.3467 15 30.3926 14.0635 30.3926 12.5869V12.5732C30.3926 11.0967 29.3467 10.1602 27.7197 10.1602H26.3867V7.89062H25.1973V15ZM31.2949 15H32.4844V7.89062H31.2949V15ZM27.6992 11.1445C28.6016 11.1445 29.1758 11.7051 29.1758 12.5732V12.5869C29.1758 13.4482 28.6084 14.0156 27.6992 14.0156H26.3867V11.1445H27.6992ZM37.085 15.1367C38.6367 15.1367 39.7988 14.207 40.0312 13.0312L40.0449 12.9629H38.876L38.8555 13.0244C38.6504 13.6328 38.0146 14.084 37.1123 14.084C35.8477 14.084 35.041 13.2295 35.0137 11.7666H40.1338V11.3291C40.1338 9.19629 38.9512 7.75391 37.0098 7.75391C35.0684 7.75391 33.8105 9.26465 33.8105 11.4658V11.4727C33.8105 13.708 35.041 15.1367 37.085 15.1367ZM37.0029 8.80664C38.042 8.80664 38.8076 9.45605 38.9238 10.8369H35.0342C35.1641 9.51074 35.9707 8.80664 37.0029 8.80664ZM46.71 15.1367C48.3711 15.1367 49.4854 14.248 49.4854 12.9287V12.915C49.4854 12.0947 48.9795 11.5273 48.0635 11.3291V11.2744C48.7881 11.1104 49.2871 10.4746 49.2871 9.71582V9.70215C49.2871 8.49902 48.3369 7.75391 46.7852 7.75391C45.3086 7.75391 44.2764 8.49219 44.1123 9.64062L44.1055 9.68848H45.2607L45.2676 9.6543C45.377 9.10059 45.9717 8.73828 46.7852 8.73828C47.626 8.73828 48.125 9.13477 48.125 9.79785V9.81152C48.125 10.5156 47.6533 10.8711 46.71 10.8711H45.6436V11.8555H46.71C47.7969 11.8555 48.3164 12.2109 48.3164 12.9697V12.9834C48.3164 13.7012 47.6943 14.1523 46.71 14.1523C45.8623 14.1523 45.2949 13.8174 45.124 13.2227L45.1035 13.1543H43.9004L43.9072 13.209C44.0508 14.3711 45.165 15.1367 46.71 15.1367ZM50.8457 15H53.9082C55.4189 15 56.3486 14.2139 56.3486 12.9629V12.9492C56.3486 12.0811 55.7607 11.4521 54.8652 11.3291V11.2744C55.5215 11.1377 56.0342 10.4678 56.0342 9.73633V9.72266C56.0342 8.59473 55.2207 7.89062 53.8877 7.89062H50.8457V15ZM52.0352 10.8643V8.875H53.71C54.4551 8.875 54.8516 9.20996 54.8516 9.8457V9.85938C54.8516 10.543 54.4277 10.8643 53.5322 10.8643H52.0352ZM52.0352 14.0156V11.8486H53.5938C54.6328 11.8486 55.1318 12.1904 55.1318 12.9219V12.9355C55.1318 13.6465 54.667 14.0156 53.8057 14.0156H52.0352ZM60.6621 15.1367C62.624 15.1367 63.9502 13.7148 63.9502 11.4453V11.4316C63.9502 9.16211 62.6172 7.75391 60.6553 7.75391C58.6934 7.75391 57.3672 9.16895 57.3672 11.4316V11.4453C57.3672 13.708 58.6865 15.1367 60.6621 15.1367ZM60.6689 14.084C59.4111 14.084 58.584 13.1201 58.584 11.4453V11.4316C58.584 9.77051 59.418 8.80664 60.6553 8.80664C61.9131 8.80664 62.7334 9.76367 62.7334 11.4316V11.4453C62.7334 13.1133 61.9199 14.084 60.6689 14.084ZM69.9521 15H71.1416V7.89062H69.9521V10.8232H66.4727V7.89062H65.2832V15H66.4727V11.8076H69.9521V15ZM74.2793 11.7188L77.1162 15H78.6201L75.3525 11.2539L78.5244 7.89062H77.082L74.2793 10.8984H74.0059V7.89062H72.8164V15H74.0059V11.7188H74.2793ZM79.6113 15H80.7871L84.3281 9.71582H84.3828V15H85.5723V7.89062H84.3965L80.8555 13.1748H80.8008V7.89062H79.6113V15Z" fill="#122945"/>
<path d="M90.0771 15H96.585V13.9062H91.7656V13.8789L94.1104 11.4727C95.9219 9.62012 96.4209 8.80664 96.4209 7.72656V7.71289C96.4209 6.16797 95.1152 4.97168 93.3311 4.97168C91.4922 4.97168 90.0156 6.23633 90.0156 7.94531V7.98633H91.2051V7.95215C91.2051 6.89258 92.1211 6.04492 93.3516 6.04492C94.4248 6.04492 95.1836 6.76953 95.1904 7.77441V7.78809C95.1904 8.6084 94.8828 9.1416 93.5498 10.5293L90.0771 14.1523V15ZM101.445 15.1641C103.715 15.1641 105.075 13.2021 105.075 10.0713V10.0576C105.075 6.92676 103.715 4.97168 101.445 4.97168C99.1758 4.97168 97.8291 6.92676 97.8291 10.0576V10.0713C97.8291 13.2021 99.1758 15.1641 101.445 15.1641ZM101.445 14.0908C99.9414 14.0908 99.0664 12.5459 99.0664 10.0713V10.0576C99.0664 7.58301 99.9414 6.05176 101.445 6.05176C102.949 6.05176 103.838 7.58301 103.838 10.0576V10.0713C103.838 12.5459 102.949 14.0908 101.445 14.0908ZM109.402 15H110.578L114.119 9.71582H114.174V15H115.363V7.89062H114.188L110.646 13.1748H110.592V7.89062H109.402V15ZM119.403 15.1367C121.064 15.1367 122.179 14.248 122.179 12.9287V12.915C122.179 12.0947 121.673 11.5273 120.757 11.3291V11.2744C121.481 11.1104 121.98 10.4746 121.98 9.71582V9.70215C121.98 8.49902 121.03 7.75391 119.479 7.75391C118.002 7.75391 116.97 8.49219 116.806 9.64062L116.799 9.68848H117.954L117.961 9.6543C118.07 9.10059 118.665 8.73828 119.479 8.73828C120.319 8.73828 120.818 9.13477 120.818 9.79785V9.81152C120.818 10.5156 120.347 10.8711 119.403 10.8711H118.337V11.8555H119.403C120.49 11.8555 121.01 12.2109 121.01 12.9697V12.9834C121.01 13.7012 120.388 14.1523 119.403 14.1523C118.556 14.1523 117.988 13.8174 117.817 13.2227L117.797 13.1543H116.594L116.601 13.209C116.744 14.3711 117.858 15.1367 119.403 15.1367ZM129.698 15.1641C131.674 15.1641 133.123 13.9473 133.123 12.2998V12.2861C133.123 10.8848 132.146 9.98926 130.71 9.86621V9.83887C131.94 9.5791 132.802 8.74512 132.802 7.52832V7.51465C132.802 6.01758 131.564 4.97168 129.685 4.97168C127.839 4.97168 126.567 6.04492 126.41 7.65137L126.403 7.71973H127.586L127.593 7.65137C127.695 6.65332 128.522 6.03809 129.685 6.03809C130.888 6.03809 131.564 6.63281 131.564 7.66504V7.67871C131.564 8.66309 130.744 9.3877 129.568 9.3877H128.386V10.4268H129.623C131.004 10.4268 131.872 11.1035 131.872 12.3135V12.3271C131.872 13.373 130.99 14.0977 129.698 14.0977C128.386 14.0977 127.497 13.4277 127.395 12.457L127.388 12.3887H126.205L126.212 12.4707C126.342 14.0293 127.661 15.1641 129.698 15.1641ZM138.1 15.1641C140.369 15.1641 141.729 13.2021 141.729 10.0713V10.0576C141.729 6.92676 140.369 4.97168 138.1 4.97168C135.83 4.97168 134.483 6.92676 134.483 10.0576V10.0713C134.483 13.2021 135.83 15.1641 138.1 15.1641ZM138.1 14.0908C136.596 14.0908 135.721 12.5459 135.721 10.0713V10.0576C135.721 7.58301 136.596 6.05176 138.1 6.05176C139.604 6.05176 140.492 7.58301 140.492 10.0576V10.0713C140.492 12.5459 139.604 14.0908 138.1 14.0908ZM146.057 15H154.834V7.89062H153.645V14.0156H151.04V7.89062H149.851V14.0156H147.246V7.89062H146.057V15ZM161.704 7.89062H155.935V8.875H158.225V15H159.414V8.875H161.704V7.89062Z" fill="#00A775"/>
<path d="M0 31C0 29.3431 1.34315 28 3 28H153C154.657 28 156 29.3431 156 31C156 32.6569 154.657 34 153 34H3C1.34315 34 0 32.6569 0 31Z" fill="#DEE6F5"/>
<path d="M0 31C0 29.3431 1.34315 28 3 28H68V34H3C1.34314 34 0 32.6569 0 31Z" fill="#28A879"/>
<path d="M220.256 15V10.4541H220.666L224.843 15H226.497L221.691 9.8457L226.039 5.13574H224.494L220.666 9.46973H220.256V5.13574H219.025V15H220.256ZM229.368 15.1367C230.318 15.1367 231.173 14.624 231.59 13.8447H231.617V15H232.807V10.085C232.807 8.66309 231.754 7.75391 230.072 7.75391C228.397 7.75391 227.379 8.69727 227.276 9.86621L227.27 9.94141H228.418L228.432 9.87988C228.568 9.24414 229.143 8.80664 230.059 8.80664C231.05 8.80664 231.617 9.33301 231.617 10.2012V10.7959L229.58 10.9121C227.946 11.0078 227.003 11.7666 227.003 12.9766V12.9902C227.003 14.2822 227.953 15.1367 229.368 15.1367ZM228.22 12.9902V12.9766C228.22 12.3135 228.767 11.8896 229.717 11.835L231.617 11.7188V12.2998C231.617 13.332 230.756 14.1045 229.635 14.1045C228.78 14.1045 228.22 13.6738 228.22 12.9902ZM239.868 15V7.89062H238.679V10.8848C238.351 11.2129 237.715 11.4316 237.086 11.4316C235.999 11.4316 235.459 10.9326 235.459 9.9209V7.89062H234.27V10.0029C234.27 11.5137 235.151 12.4844 236.86 12.4844C237.537 12.4844 238.207 12.2861 238.651 11.8896H238.679V15H239.868ZM244.476 15.1367C246.027 15.1367 247.189 14.207 247.422 13.0312L247.436 12.9629H246.267L246.246 13.0244C246.041 13.6328 245.405 14.084 244.503 14.084C243.238 14.084 242.432 13.2295 242.404 11.7666H247.524V11.3291C247.524 9.19629 246.342 7.75391 244.4 7.75391C242.459 7.75391 241.201 9.26465 241.201 11.4658V11.4727C241.201 13.708 242.432 15.1367 244.476 15.1367ZM244.394 8.80664C245.433 8.80664 246.198 9.45605 246.314 10.8369H242.425C242.555 9.51074 243.361 8.80664 244.394 8.80664ZM251.811 15.1367C253.417 15.1367 254.586 14.0908 254.777 12.7373L254.784 12.6895H253.615L253.602 12.7441C253.403 13.5371 252.781 14.084 251.811 14.084C250.58 14.084 249.732 13.1064 249.732 11.4521V11.4453C249.732 9.83203 250.56 8.80664 251.797 8.80664C252.843 8.80664 253.417 9.43555 253.595 10.1465L253.608 10.2012H254.771L254.764 10.1465C254.613 8.92969 253.567 7.75391 251.797 7.75391C249.821 7.75391 248.516 9.18945 248.516 11.4316V11.4385C248.516 13.7012 249.794 15.1367 251.811 15.1367ZM261.073 7.89062H255.304V8.875H257.594V15H258.783V8.875H261.073V7.89062ZM262.174 15H265.236C266.747 15 267.677 14.2139 267.677 12.9629V12.9492C267.677 12.0811 267.089 11.4521 266.193 11.3291V11.2744C266.85 11.1377 267.362 10.4678 267.362 9.73633V9.72266C267.362 8.59473 266.549 7.89062 265.216 7.89062H262.174V15ZM263.363 10.8643V8.875H265.038C265.783 8.875 266.18 9.20996 266.18 9.8457V9.85938C266.18 10.543 265.756 10.8643 264.86 10.8643H263.363ZM263.363 14.0156V11.8486H264.922C265.961 11.8486 266.46 12.1904 266.46 12.9219V12.9355C266.46 13.6465 265.995 14.0156 265.134 14.0156H263.363ZM271.99 15.1367C273.952 15.1367 275.278 13.7148 275.278 11.4453V11.4316C275.278 9.16211 273.945 7.75391 271.983 7.75391C270.021 7.75391 268.695 9.16895 268.695 11.4316V11.4453C268.695 13.708 270.015 15.1367 271.99 15.1367ZM271.997 14.084C270.739 14.084 269.912 13.1201 269.912 11.4453V11.4316C269.912 9.77051 270.746 8.80664 271.983 8.80664C273.241 8.80664 274.062 9.76367 274.062 11.4316V11.4453C274.062 13.1133 273.248 14.084 271.997 14.084ZM279.489 17.3926H280.679V13.8105H280.706C281.15 14.6309 281.978 15.1367 282.982 15.1367C284.767 15.1367 285.983 13.6943 285.983 11.4521V11.4453C285.983 9.20312 284.78 7.75391 282.962 7.75391C281.943 7.75391 281.15 8.2666 280.706 9.09375H280.679V7.89062H279.489V17.3926ZM282.729 14.084C281.533 14.084 280.672 13.0381 280.672 11.4521V11.4453C280.672 9.85254 281.526 8.80664 282.729 8.80664C283.987 8.80664 284.767 9.81152 284.767 11.4453V11.4521C284.767 13.0723 283.987 14.084 282.729 14.084ZM289.401 15.1367C290.352 15.1367 291.206 14.624 291.623 13.8447H291.65V15H292.84V10.085C292.84 8.66309 291.787 7.75391 290.105 7.75391C288.431 7.75391 287.412 8.69727 287.31 9.86621L287.303 9.94141H288.451L288.465 9.87988C288.602 9.24414 289.176 8.80664 290.092 8.80664C291.083 8.80664 291.65 9.33301 291.65 10.2012V10.7959L289.613 10.9121C287.979 11.0078 287.036 11.7666 287.036 12.9766V12.9902C287.036 14.2822 287.986 15.1367 289.401 15.1367ZM288.253 12.9902V12.9766C288.253 12.3135 288.8 11.8896 289.75 11.835L291.65 11.7188V12.2998C291.65 13.332 290.789 14.1045 289.668 14.1045C288.813 14.1045 288.253 13.6738 288.253 12.9902ZM296.853 15.1367C298.514 15.1367 299.628 14.248 299.628 12.9287V12.915C299.628 12.0947 299.122 11.5273 298.206 11.3291V11.2744C298.931 11.1104 299.43 10.4746 299.43 9.71582V9.70215C299.43 8.49902 298.479 7.75391 296.928 7.75391C295.451 7.75391 294.419 8.49219 294.255 9.64062L294.248 9.68848H295.403L295.41 9.6543C295.52 9.10059 296.114 8.73828 296.928 8.73828C297.769 8.73828 298.268 9.13477 298.268 9.79785V9.81152C298.268 10.5156 297.796 10.8711 296.853 10.8711H295.786V11.8555H296.853C297.939 11.8555 298.459 12.2109 298.459 12.9697V12.9834C298.459 13.7012 297.837 14.1523 296.853 14.1523C296.005 14.1523 295.438 13.8174 295.267 13.2227L295.246 13.1543H294.043L294.05 13.209C294.193 14.3711 295.308 15.1367 296.853 15.1367ZM305.562 8.875V7.89062H300.988V15H302.178V8.875H305.562ZM309.533 15.1367C311.495 15.1367 312.821 13.7148 312.821 11.4453V11.4316C312.821 9.16211 311.488 7.75391 309.526 7.75391C307.564 7.75391 306.238 9.16895 306.238 11.4316V11.4453C306.238 13.708 307.558 15.1367 309.533 15.1367ZM309.54 14.084C308.282 14.084 307.455 13.1201 307.455 11.4453V11.4316C307.455 9.77051 308.289 8.80664 309.526 8.80664C310.784 8.80664 311.604 9.76367 311.604 11.4316V11.4453C311.604 13.1133 310.791 14.084 309.54 14.084ZM314.154 15H317.217C318.728 15 319.657 14.2139 319.657 12.9629V12.9492C319.657 12.0811 319.069 11.4521 318.174 11.3291V11.2744C318.83 11.1377 319.343 10.4678 319.343 9.73633V9.72266C319.343 8.59473 318.529 7.89062 317.196 7.89062H314.154V15ZM315.344 10.8643V8.875H317.019C317.764 8.875 318.16 9.20996 318.16 9.8457V9.85938C318.16 10.543 317.736 10.8643 316.841 10.8643H315.344ZM315.344 14.0156V11.8486H316.902C317.941 11.8486 318.44 12.1904 318.44 12.9219V12.9355C318.44 13.6465 317.976 14.0156 317.114 14.0156H315.344ZM323.971 15.1367C325.933 15.1367 327.259 13.7148 327.259 11.4453V11.4316C327.259 9.16211 325.926 7.75391 323.964 7.75391C322.002 7.75391 320.676 9.16895 320.676 11.4316V11.4453C320.676 13.708 321.995 15.1367 323.971 15.1367ZM323.978 14.084C322.72 14.084 321.893 13.1201 321.893 11.4453V11.4316C321.893 9.77051 322.727 8.80664 323.964 8.80664C325.222 8.80664 326.042 9.76367 326.042 11.4316V11.4453C326.042 13.1133 325.229 14.084 323.978 14.084ZM328.599 17.3926H329.788V13.8105H329.815C330.26 14.6309 331.087 15.1367 332.092 15.1367C333.876 15.1367 335.093 13.6943 335.093 11.4521V11.4453C335.093 9.20312 333.89 7.75391 332.071 7.75391C331.053 7.75391 330.26 8.2666 329.815 9.09375H329.788V7.89062H328.599V17.3926ZM331.839 14.084C330.643 14.084 329.781 13.0381 329.781 11.4521V11.4453C329.781 9.85254 330.636 8.80664 331.839 8.80664C333.097 8.80664 333.876 9.81152 333.876 11.4453V11.4521C333.876 13.0723 333.097 14.084 331.839 14.084ZM339.379 15.1367C341.341 15.1367 342.667 13.7148 342.667 11.4453V11.4316C342.667 9.16211 341.334 7.75391 339.372 7.75391C337.41 7.75391 336.084 9.16895 336.084 11.4316V11.4453C336.084 13.708 337.403 15.1367 339.379 15.1367ZM339.386 14.084C338.128 14.084 337.301 13.1201 337.301 11.4453V11.4316C337.301 9.77051 338.135 8.80664 339.372 8.80664C340.63 8.80664 341.45 9.76367 341.45 11.4316V11.4453C341.45 13.1133 340.637 14.084 339.386 14.084ZM344 15H347.062C348.573 15 349.503 14.2139 349.503 12.9629V12.9492C349.503 12.0811 348.915 11.4521 348.02 11.3291V11.2744C348.676 11.1377 349.188 10.4678 349.188 9.73633V9.72266C349.188 8.59473 348.375 7.89062 347.042 7.89062H344V15ZM345.189 10.8643V8.875H346.864C347.609 8.875 348.006 9.20996 348.006 9.8457V9.85938C348.006 10.543 347.582 10.8643 346.687 10.8643H345.189ZM345.189 14.0156V11.8486H346.748C347.787 11.8486 348.286 12.1904 348.286 12.9219V12.9355C348.286 13.6465 347.821 14.0156 346.96 14.0156H345.189Z" fill="#122945"/>
<path d="M358.39 15H359.579V12.9492H360.974V11.8691H359.579V5.13574H357.761L353.434 11.835V12.9492H358.39V15ZM354.65 11.8691V11.8418L358.349 6.18848H358.39V11.8691H354.65ZM365.602 15.1641C367.871 15.1641 369.231 13.2021 369.231 10.0713V10.0576C369.231 6.92676 367.871 4.97168 365.602 4.97168C363.332 4.97168 361.985 6.92676 361.985 10.0576V10.0713C361.985 13.2021 363.332 15.1641 365.602 15.1641ZM365.602 14.0908C364.098 14.0908 363.223 12.5459 363.223 10.0713V10.0576C363.223 7.58301 364.098 6.05176 365.602 6.05176C367.105 6.05176 367.994 7.58301 367.994 10.0576V10.0713C367.994 12.5459 367.105 14.0908 365.602 14.0908ZM372.472 10.0029C373.716 10.0029 374.468 9.05273 374.468 7.52832V7.52148C374.468 6.00391 373.716 5.05371 372.472 5.05371C371.228 5.05371 370.476 6.00391 370.476 7.52148V7.52832C370.476 9.05273 371.228 10.0029 372.472 10.0029ZM372.916 15L379.232 5.13574H378.125L371.795 15H372.916ZM372.472 9.18262C371.809 9.18262 371.426 8.56738 371.426 7.52832V7.52148C371.426 6.48242 371.809 5.87402 372.472 5.87402C373.135 5.87402 373.518 6.48242 373.518 7.52148V7.52832C373.518 8.56738 373.135 9.18262 372.472 9.18262ZM378.549 15.082C379.793 15.082 380.545 14.1318 380.545 12.6074V12.6006C380.545 11.083 379.793 10.1328 378.549 10.1328C377.305 10.1328 376.553 11.083 376.553 12.6006V12.6074C376.553 14.1318 377.305 15.082 378.549 15.082ZM378.549 14.2617C377.886 14.2617 377.503 13.6465 377.503 12.6074V12.6006C377.503 11.5615 377.886 10.9531 378.549 10.9531C379.212 10.9531 379.595 11.5615 379.595 12.6006V12.6074C379.595 13.6465 379.212 14.2617 378.549 14.2617Z" fill="#FFB800"/>
<path d="M218 31C218 29.3431 219.343 28 221 28H371C372.657 28 374 29.3431 374 31C374 32.6569 372.657 34 371 34H221C219.343 34 218 32.6569 218 31Z" fill="#DEE6F5"/>
<path d="M218 31C218 29.3431 219.343 28 221 28H285V34H221C219.343 34 218 32.6569 218 31Z" fill="#FFD500"/>
<path d="M440.256 15V10.4541H440.666L444.843 15H446.497L441.691 9.8457L446.039 5.13574H444.494L440.666 9.46973H440.256V5.13574H439.025V15H440.256ZM450.031 15.1367C451.993 15.1367 453.319 13.7148 453.319 11.4453V11.4316C453.319 9.16211 451.986 7.75391 450.024 7.75391C448.062 7.75391 446.736 9.16895 446.736 11.4316V11.4453C446.736 13.708 448.056 15.1367 450.031 15.1367ZM450.038 14.084C448.78 14.084 447.953 13.1201 447.953 11.4453V11.4316C447.953 9.77051 448.787 8.80664 450.024 8.80664C451.282 8.80664 452.103 9.76367 452.103 11.4316V11.4453C452.103 13.1133 451.289 14.084 450.038 14.084ZM459.321 15H460.511V7.89062H459.321V10.8232H455.842V7.89062H454.652V15H455.842V11.8076H459.321V15ZM462.186 15H465.248C466.759 15 467.688 14.2139 467.688 12.9629V12.9492C467.688 12.0811 467.101 11.4521 466.205 11.3291V11.2744C466.861 11.1377 467.374 10.4678 467.374 9.73633V9.72266C467.374 8.59473 466.561 7.89062 465.228 7.89062H462.186V15ZM463.375 10.8643V8.875H465.05C465.795 8.875 466.191 9.20996 466.191 9.8457V9.85938C466.191 10.543 465.768 10.8643 464.872 10.8643H463.375ZM463.375 14.0156V11.8486H464.934C465.973 11.8486 466.472 12.1904 466.472 12.9219V12.9355C466.472 13.6465 466.007 14.0156 465.146 14.0156H463.375ZM471.981 15.1367C473.533 15.1367 474.695 14.207 474.928 13.0312L474.941 12.9629H473.772L473.752 13.0244C473.547 13.6328 472.911 14.084 472.009 14.084C470.744 14.084 469.938 13.2295 469.91 11.7666H475.03V11.3291C475.03 9.19629 473.848 7.75391 471.906 7.75391C469.965 7.75391 468.707 9.26465 468.707 11.4658V11.4727C468.707 13.708 469.938 15.1367 471.981 15.1367ZM471.899 8.80664C472.938 8.80664 473.704 9.45605 473.82 10.8369H469.931C470.061 9.51074 470.867 8.80664 471.899 8.80664ZM476.37 17.3926H477.56V13.8105H477.587C478.031 14.6309 478.858 15.1367 479.863 15.1367C481.647 15.1367 482.864 13.6943 482.864 11.4521V11.4453C482.864 9.20312 481.661 7.75391 479.843 7.75391C478.824 7.75391 478.031 8.2666 477.587 9.09375H477.56V7.89062H476.37V17.3926ZM479.61 14.084C478.414 14.084 477.553 13.0381 477.553 11.4521V11.4453C477.553 9.85254 478.407 8.80664 479.61 8.80664C480.868 8.80664 481.647 9.81152 481.647 11.4453V11.4521C481.647 13.0723 480.868 14.084 479.61 14.084ZM487.15 15.1367C488.757 15.1367 489.926 14.0908 490.117 12.7373L490.124 12.6895H488.955L488.941 12.7441C488.743 13.5371 488.121 14.084 487.15 14.084C485.92 14.084 485.072 13.1064 485.072 11.4521V11.4453C485.072 9.83203 485.899 8.80664 487.137 8.80664C488.183 8.80664 488.757 9.43555 488.935 10.1465L488.948 10.2012H490.11L490.104 10.1465C489.953 8.92969 488.907 7.75391 487.137 7.75391C485.161 7.75391 483.855 9.18945 483.855 11.4316V11.4385C483.855 13.7012 485.134 15.1367 487.15 15.1367ZM491.348 15H492.523L496.064 9.71582H496.119V15H497.309V7.89062H496.133L492.592 13.1748H492.537V7.89062H491.348V15ZM502.982 15H504.172V7.89062H501.526C499.893 7.89062 498.84 8.78613 498.84 10.2422V10.2559C498.84 11.2266 499.448 11.9648 500.453 12.252L498.471 15H499.845L501.649 12.4707H502.982V15ZM501.533 11.4863C500.617 11.4863 500.057 10.9668 500.057 10.2354V10.2217C500.057 9.37402 500.61 8.875 501.533 8.875H502.982V11.4863H501.533ZM508.711 15H511.773C513.284 15 514.214 14.2139 514.214 12.9629V12.9492C514.214 12.0811 513.626 11.4521 512.73 11.3291V11.2744C513.387 11.1377 513.899 10.4678 513.899 9.73633V9.72266C513.899 8.59473 513.086 7.89062 511.753 7.89062H508.711V15ZM509.9 10.8643V8.875H511.575C512.32 8.875 512.717 9.20996 512.717 9.8457V9.85938C512.717 10.543 512.293 10.8643 511.397 10.8643H509.9ZM509.9 14.0156V11.8486H511.459C512.498 11.8486 512.997 12.1904 512.997 12.9219V12.9355C512.997 13.6465 512.532 14.0156 511.671 14.0156H509.9ZM520.817 15.1367C522.479 15.1367 523.593 14.248 523.593 12.9287V12.915C523.593 12.0947 523.087 11.5273 522.171 11.3291V11.2744C522.896 11.1104 523.395 10.4746 523.395 9.71582V9.70215C523.395 8.49902 522.444 7.75391 520.893 7.75391C519.416 7.75391 518.384 8.49219 518.22 9.64062L518.213 9.68848H519.368L519.375 9.6543C519.484 9.10059 520.079 8.73828 520.893 8.73828C521.733 8.73828 522.232 9.13477 522.232 9.79785V9.81152C522.232 10.5156 521.761 10.8711 520.817 10.8711H519.751V11.8555H520.817C521.904 11.8555 522.424 12.2109 522.424 12.9697V12.9834C522.424 13.7012 521.802 14.1523 520.817 14.1523C519.97 14.1523 519.402 13.8174 519.231 13.2227L519.211 13.1543H518.008L518.015 13.209C518.158 14.3711 519.272 15.1367 520.817 15.1367ZM527.038 15.1367C527.988 15.1367 528.843 14.624 529.26 13.8447H529.287V15H530.477V10.085C530.477 8.66309 529.424 7.75391 527.742 7.75391C526.067 7.75391 525.049 8.69727 524.946 9.86621L524.939 9.94141H526.088L526.102 9.87988C526.238 9.24414 526.812 8.80664 527.729 8.80664C528.72 8.80664 529.287 9.33301 529.287 10.2012V10.7959L527.25 10.9121C525.616 11.0078 524.673 11.7666 524.673 12.9766V12.9902C524.673 14.2822 525.623 15.1367 527.038 15.1367ZM525.89 12.9902V12.9766C525.89 12.3135 526.437 11.8896 527.387 11.835L529.287 11.7188V12.2998C529.287 13.332 528.426 14.1045 527.305 14.1045C526.45 14.1045 525.89 13.6738 525.89 12.9902ZM533.58 11.7188L536.417 15H537.921L534.653 11.2539L537.825 7.89062H536.383L533.58 10.8984H533.307V7.89062H532.117V15H533.307V11.7188H533.58ZM540.792 15.1367C541.742 15.1367 542.597 14.624 543.014 13.8447H543.041V15H544.23V10.085C544.23 8.66309 543.178 7.75391 541.496 7.75391C539.821 7.75391 538.803 8.69727 538.7 9.86621L538.693 9.94141H539.842L539.855 9.87988C539.992 9.24414 540.566 8.80664 541.482 8.80664C542.474 8.80664 543.041 9.33301 543.041 10.2012V10.7959L541.004 10.9121C539.37 11.0078 538.427 11.7666 538.427 12.9766V12.9902C538.427 14.2822 539.377 15.1367 540.792 15.1367ZM539.644 12.9902V12.9766C539.644 12.3135 540.19 11.8896 541.141 11.835L543.041 11.7188V12.2998C543.041 13.332 542.18 14.1045 541.059 14.1045C540.204 14.1045 539.644 13.6738 539.644 12.9902ZM548.243 15.1367C549.904 15.1367 551.019 14.248 551.019 12.9287V12.915C551.019 12.0947 550.513 11.5273 549.597 11.3291V11.2744C550.321 11.1104 550.82 10.4746 550.82 9.71582V9.70215C550.82 8.49902 549.87 7.75391 548.318 7.75391C546.842 7.75391 545.81 8.49219 545.646 9.64062L545.639 9.68848H546.794L546.801 9.6543C546.91 9.10059 547.505 8.73828 548.318 8.73828C549.159 8.73828 549.658 9.13477 549.658 9.79785V9.81152C549.658 10.5156 549.187 10.8711 548.243 10.8711H547.177V11.8555H548.243C549.33 11.8555 549.85 12.2109 549.85 12.9697V12.9834C549.85 13.7012 549.228 14.1523 548.243 14.1523C547.396 14.1523 546.828 13.8174 546.657 13.2227L546.637 13.1543H545.434L545.44 13.209C545.584 14.3711 546.698 15.1367 548.243 15.1367Z" fill="#122945"/>
<path d="M558.784 15.1641C560.801 15.1641 562.277 13.7559 562.277 11.8145V11.8008C562.277 9.92773 560.883 8.54004 559.003 8.54004C557.663 8.54004 556.651 9.25098 556.255 10.126H556.228C556.228 10.0508 556.228 9.98242 556.234 9.91406C556.289 7.84277 557.014 6.05859 558.853 6.05859C559.864 6.05859 560.568 6.56445 560.862 7.37793L560.89 7.45312H562.141L562.12 7.36426C561.792 5.92871 560.541 4.97168 558.866 4.97168C556.453 4.97168 555.038 6.91309 555.038 10.2354V10.249C555.038 13.9062 556.966 15.1641 558.784 15.1641ZM556.521 11.8008V11.7939C556.521 10.5361 557.499 9.62012 558.791 9.62012C560.09 9.62012 561.026 10.543 561.026 11.8281V11.8418C561.026 13.0859 560.028 14.0703 558.771 14.0703C557.506 14.0703 556.521 13.0654 556.521 11.8008ZM564.424 15H565.716L570.104 6.27734V5.13574H563.576V6.22949H568.888V6.25684L564.424 15ZM573.331 10.0029C574.575 10.0029 575.327 9.05273 575.327 7.52832V7.52148C575.327 6.00391 574.575 5.05371 573.331 5.05371C572.087 5.05371 571.335 6.00391 571.335 7.52148V7.52832C571.335 9.05273 572.087 10.0029 573.331 10.0029ZM573.775 15L580.092 5.13574H578.984L572.654 15H573.775ZM573.331 9.18262C572.668 9.18262 572.285 8.56738 572.285 7.52832V7.52148C572.285 6.48242 572.668 5.87402 573.331 5.87402C573.994 5.87402 574.377 6.48242 574.377 7.52148V7.52832C574.377 8.56738 573.994 9.18262 573.331 9.18262ZM579.408 15.082C580.652 15.082 581.404 14.1318 581.404 12.6074V12.6006C581.404 11.083 580.652 10.1328 579.408 10.1328C578.164 10.1328 577.412 11.083 577.412 12.6006V12.6074C577.412 14.1318 578.164 15.082 579.408 15.082ZM579.408 14.2617C578.745 14.2617 578.362 13.6465 578.362 12.6074V12.6006C578.362 11.5615 578.745 10.9531 579.408 10.9531C580.071 10.9531 580.454 11.5615 580.454 12.6006V12.6074C580.454 13.6465 580.071 14.2617 579.408 14.2617Z" fill="#EA1A4F"/>
<path d="M438 31C438 29.3431 439.343 28 441 28H591C592.657 28 594 29.3431 594 31C594 32.6569 592.657 34 591 34H441C439.343 34 438 32.6569 438 31Z" fill="#DEE6F5"/>
<path d="M438 31C438 29.3431 439.343 28 441 28H516V34H441C439.343 34 438 32.6569 438 31Z" fill="#EA1A4F"/>
</svg>
