<svg width="482" height="48" viewBox="0 0 482 48" fill="none" xmlns="http://www.w3.org/2000/svg">
<path d="M36.7637 29V19.1357H29.0254V29H30.2559V20.2432H35.5332V29H36.7637ZM41.5762 29.1367C43.5381 29.1367 44.8643 27.7148 44.8643 25.4453V25.4316C44.8643 23.1621 43.5312 21.7539 41.5693 21.7539C39.6074 21.7539 38.2812 23.1689 38.2812 25.4316V25.4453C38.2812 27.708 39.6006 29.1367 41.5762 29.1367ZM41.583 28.084C40.3252 28.084 39.498 27.1201 39.498 25.4453V25.4316C39.498 23.7705 40.332 22.8066 41.5693 22.8066C42.8271 22.8066 43.6475 23.7637 43.6475 25.4316V25.4453C43.6475 27.1133 42.834 28.084 41.583 28.084ZM46.1973 29H47.373L50.9141 23.7158H50.9688V29H52.1582V21.8906H50.9824L47.4414 27.1748H47.3867V21.8906H46.1973V29ZM56.7793 29.1367C58.3857 29.1367 59.5547 28.0908 59.7461 26.7373L59.7529 26.6895H58.584L58.5703 26.7441C58.3721 27.5371 57.75 28.084 56.7793 28.084C55.5488 28.084 54.7012 27.1064 54.7012 25.4521V25.4453C54.7012 23.832 55.5283 22.8066 56.7656 22.8066C57.8115 22.8066 58.3857 23.4355 58.5635 24.1465L58.5771 24.2012H59.7393L59.7324 24.1465C59.582 22.9297 58.5361 21.7539 56.7656 21.7539C54.79 21.7539 53.4844 23.1895 53.4844 25.4316V25.4385C53.4844 27.7012 54.7627 29.1367 56.7793 29.1367ZM62.4395 25.7188L65.2764 29H66.7803L63.5127 25.2539L66.6846 21.8906H65.2422L62.4395 24.8984H62.166V21.8906H60.9766V29H62.166V25.7188H62.4395ZM70.6426 29H71.832V22.875H75.2432V29H76.4395V21.8906H70.6426V29ZM81.0605 29.1367C83.0225 29.1367 84.3486 27.7148 84.3486 25.4453V25.4316C84.3486 23.1621 83.0156 21.7539 81.0537 21.7539C79.0918 21.7539 77.7656 23.1689 77.7656 25.4316V25.4453C77.7656 27.708 79.085 29.1367 81.0605 29.1367ZM81.0674 28.084C79.8096 28.084 78.9824 27.1201 78.9824 25.4453V25.4316C78.9824 23.7705 79.8164 22.8066 81.0537 22.8066C82.3115 22.8066 83.1318 23.7637 83.1318 25.4316V25.4453C83.1318 27.1133 82.3184 28.084 81.0674 28.084ZM90.9248 29.1367C92.5859 29.1367 93.7002 28.248 93.7002 26.9287V26.915C93.7002 26.0947 93.1943 25.5273 92.2783 25.3291V25.2744C93.0029 25.1104 93.502 24.4746 93.502 23.7158V23.7021C93.502 22.499 92.5518 21.7539 91 21.7539C89.5234 21.7539 88.4912 22.4922 88.3271 23.6406L88.3203 23.6885H89.4756L89.4824 23.6543C89.5918 23.1006 90.1865 22.7383 91 22.7383C91.8408 22.7383 92.3398 23.1348 92.3398 23.7979V23.8115C92.3398 24.5156 91.8682 24.8711 90.9248 24.8711H89.8584V25.8555H90.9248C92.0117 25.8555 92.5312 26.2109 92.5312 26.9697V26.9834C92.5312 27.7012 91.9092 28.1523 90.9248 28.1523C90.0771 28.1523 89.5098 27.8174 89.3389 27.2227L89.3184 27.1543H88.1152L88.1221 27.209C88.2656 28.3711 89.3799 29.1367 90.9248 29.1367ZM95.0605 29H98.123C99.6338 29 100.563 28.2139 100.563 26.9629V26.9492C100.563 26.0811 99.9756 25.4521 99.0801 25.3291V25.2744C99.7363 25.1377 100.249 24.4678 100.249 23.7363V23.7227C100.249 22.5947 99.4355 21.8906 98.1025 21.8906H95.0605V29ZM96.25 24.8643V22.875H97.9248C98.6699 22.875 99.0664 23.21 99.0664 23.8457V23.8594C99.0664 24.543 98.6426 24.8643 97.7471 24.8643H96.25ZM96.25 28.0156V25.8486H97.8086C98.8477 25.8486 99.3467 26.1904 99.3467 26.9219V26.9355C99.3467 27.6465 98.8818 28.0156 98.0205 28.0156H96.25ZM104.877 29.1367C106.839 29.1367 108.165 27.7148 108.165 25.4453V25.4316C108.165 23.1621 106.832 21.7539 104.87 21.7539C102.908 21.7539 101.582 23.1689 101.582 25.4316V25.4453C101.582 27.708 102.901 29.1367 104.877 29.1367ZM104.884 28.084C103.626 28.084 102.799 27.1201 102.799 25.4453V25.4316C102.799 23.7705 103.633 22.8066 104.87 22.8066C106.128 22.8066 106.948 23.7637 106.948 25.4316V25.4453C106.948 27.1133 106.135 28.084 104.884 28.084ZM114.167 29H115.356V21.8906H114.167V24.8232H110.688V21.8906H109.498V29H110.688V25.8076H114.167V29ZM118.494 25.7188L121.331 29H122.835L119.567 25.2539L122.739 21.8906H121.297L118.494 24.8984H118.221V21.8906H117.031V29H118.221V25.7188H118.494ZM125.706 29.1367C126.656 29.1367 127.511 28.624 127.928 27.8447H127.955V29H129.145V24.085C129.145 22.6631 128.092 21.7539 126.41 21.7539C124.735 21.7539 123.717 22.6973 123.614 23.8662L123.607 23.9414H124.756L124.77 23.8799C124.906 23.2441 125.48 22.8066 126.396 22.8066C127.388 22.8066 127.955 23.333 127.955 24.2012V24.7959L125.918 24.9121C124.284 25.0078 123.341 25.7666 123.341 26.9766V26.9902C123.341 28.2822 124.291 29.1367 125.706 29.1367ZM124.558 26.9902V26.9766C124.558 26.3135 125.104 25.8896 126.055 25.835L127.955 25.7188V26.2998C127.955 27.332 127.094 28.1045 125.973 28.1045C125.118 28.1045 124.558 27.6738 124.558 26.9902ZM131.975 29V23.9551H132.022L134.306 28.7949H135.215L137.505 23.9551H137.553V29H138.742V21.8906H137.348L134.812 27.4277H134.757L132.241 21.8906H130.785V29H131.975Z" fill="#5E7793"/>
<path d="M11.4351 26.0629H10.7124L10.4563 25.8159C11.3528 24.773 11.8925 23.4191 11.8925 21.9463C11.8925 18.6621 9.23042 16 5.94625 16C2.66209 16 0 18.6621 0 21.9463C0 25.2304 2.66209 27.8925 5.94625 27.8925C7.4191 27.8925 8.77301 27.3528 9.81589 26.4563L10.0629 26.7124V27.4351L14.6369 32L16 30.6369L11.4351 26.0629ZM5.94625 26.0629C3.66838 26.0629 1.82962 24.2241 1.82962 21.9463C1.82962 19.6684 3.66838 17.8296 5.94625 17.8296C8.22413 17.8296 10.0629 19.6684 10.0629 21.9463C10.0629 24.2241 8.22413 26.0629 5.94625 26.0629Z" fill="#ADBFDF"/>
</svg>
