<svg width="240" height="963" viewBox="0 0 240 963" fill="none" xmlns="http://www.w3.org/2000/svg">
<rect width="240" height="963" fill="#091336"/>
<rect width="240" height="52" transform="translate(0 88)" fill="#091336"/>
<path d="M49.1172 119H50.7266L56.5391 110.609H56.5781V119H58.3125V107.727H56.6953L50.8906 116.125H50.8516V107.727H49.1172V119ZM66.5938 110.781H59.7578V112.125H62.3281V119H64.0234V112.125H66.5938V110.781ZM71.2031 119.164C73.5547 119.164 75.1016 117.539 75.1016 114.891V114.875C75.1016 112.242 73.5391 110.625 71.2031 110.625C68.8672 110.625 67.3047 112.25 67.3047 114.875V114.891C67.3047 117.531 68.8438 119.164 71.2031 119.164ZM71.2109 117.75C69.8906 117.75 69.0312 116.711 69.0312 114.891V114.875C69.0312 113.078 69.8984 112.039 71.2031 112.039C72.5156 112.039 73.3828 113.078 73.3828 114.875V114.891C73.3828 116.703 72.5312 117.75 71.2109 117.75ZM81.9922 112.125V110.781H76.5469V119H78.2344V112.125H81.9922ZM83.4062 119H85.0703L88.8438 113.227H88.9141V119H90.5938V110.781H88.9297L85.1562 116.531H85.0781V110.781H83.4062V119Z" fill="white" fill-opacity="0.6"/>
<path d="M31 105H17C15.9 105 15 105.9 15 107V121C15 122.1 15.9 123 17 123H31C32.1 123 33 122.1 33 121V107C33 105.9 32.1 105 31 105ZM31 121H17V107H31V121ZM19 112H21V119H19V112ZM23 109H25V119H23V109ZM27 115H29V119H27V115Z" fill="white" fill-opacity="0.56"/>
<rect width="240" height="52" transform="translate(0 140)" fill="#091336"/>
<path d="M51.2031 165.977H52.8047C54.3516 165.977 55.2578 166.672 55.2578 167.844V167.859C55.2578 168.945 54.3047 169.656 52.8516 169.656C51.3672 169.656 50.4219 169.07 50.2969 168.031L50.2891 167.969H48.5781L48.5859 168.062C48.7031 169.922 50.3594 171.188 52.8516 171.188C55.2656 171.188 57.0469 169.797 57.0469 167.938V167.922C57.0469 166.406 56.1172 165.336 54.6094 165.148V165.086C55.8594 164.797 56.7031 163.75 56.7031 162.5V162.484C56.7031 160.742 55.1562 159.539 52.8906 159.539C50.5312 159.539 48.9922 160.703 48.875 162.609L48.8672 162.719H50.5469L50.5547 162.609C50.6875 161.641 51.5078 161.07 52.8359 161.07C54.1875 161.07 54.9688 161.672 54.9688 162.672V162.688C54.9688 163.766 54.1016 164.508 52.7578 164.508H51.2031V165.977ZM60.9453 171.148C62.0391 171.148 62.9844 170.586 63.4609 169.703H63.5V171H65.1875V165.336C65.1875 163.688 63.9141 162.625 61.9062 162.625C59.8828 162.625 58.6562 163.711 58.5391 165.125L58.5312 165.211H60.125L60.1406 165.141C60.2812 164.484 60.8828 164.023 61.8594 164.023C62.9062 164.023 63.5 164.57 63.5 165.477V166.094L61.2578 166.227C59.3125 166.344 58.2031 167.219 58.2031 168.648V168.664C58.2031 170.141 59.3047 171.148 60.9453 171.148ZM59.9062 168.625V168.609C59.9062 167.914 60.4688 167.469 61.4844 167.406L63.5 167.281V167.922C63.5 168.992 62.5938 169.797 61.4062 169.797C60.5 169.797 59.9062 169.344 59.9062 168.625ZM68.9531 167.336L71.9766 171H74.0625L70.4609 166.641L73.9219 162.781H71.9297L68.9531 166.172H68.6562V162.781H66.9688V171H68.6562V167.336H68.9531ZM77.3672 171.148C78.4609 171.148 79.4062 170.586 79.8828 169.703H79.9219V171H81.6094V165.336C81.6094 163.688 80.3359 162.625 78.3281 162.625C76.3047 162.625 75.0781 163.711 74.9609 165.125L74.9531 165.211H76.5469L76.5625 165.141C76.7031 164.484 77.3047 164.023 78.2812 164.023C79.3281 164.023 79.9219 164.57 79.9219 165.477V166.094L77.6797 166.227C75.7344 166.344 74.625 167.219 74.625 168.648V168.664C74.625 170.141 75.7266 171.148 77.3672 171.148ZM76.3281 168.625V168.609C76.3281 167.914 76.8906 167.469 77.9062 167.406L79.9219 167.281V167.922C79.9219 168.992 79.0156 169.797 77.8281 169.797C76.9219 169.797 76.3281 169.344 76.3281 168.625ZM86.3516 171.164C88.3672 171.164 89.7031 170.141 89.7031 168.609V168.594C89.7031 167.633 89.1094 166.977 88.0234 166.758V166.695C88.9062 166.492 89.4766 165.797 89.4766 164.914V164.898C89.4766 163.492 88.3203 162.625 86.4297 162.625C84.5781 162.625 83.3672 163.5 83.1719 164.961L83.1641 165.023H84.7734L84.7812 164.969C84.9062 164.344 85.5234 163.961 86.4062 163.961C87.2969 163.961 87.8281 164.375 87.8281 165.078V165.094C87.8281 165.828 87.3203 166.203 86.3281 166.203H85.1484V167.43H86.3359C87.4766 167.43 88.0234 167.805 88.0234 168.594V168.609C88.0234 169.359 87.3828 169.82 86.3438 169.82C85.4141 169.82 84.8047 169.461 84.6172 168.797L84.5938 168.719H82.9375L82.9453 168.789C83.1094 170.242 84.4297 171.164 86.3516 171.164ZM91.1875 171H94.4375C96.3359 171 97.5625 169.898 97.5625 168.164V168.148C97.5625 166.422 96.3359 165.32 94.4375 165.32H92.875V162.781H91.1875V171ZM98.5391 171H100.234V162.781H98.5391V171ZM94.2734 166.656C95.2266 166.656 95.8359 167.242 95.8359 168.148V168.164C95.8359 169.07 95.2344 169.664 94.2734 169.664H92.875V166.656H94.2734Z" fill="white" fill-opacity="0.6"/>
<path d="M30 161L28.59 159.59L22.25 165.93L23.66 167.34L30 161ZM34.24 159.59L23.66 170.17L19.48 166L18.07 167.41L23.66 173L35.66 161L34.24 159.59ZM12.41 167.41L18 173L19.41 171.59L13.83 166L12.41 167.41Z" fill="white" fill-opacity="0.56"/>
<rect width="240" height="52" transform="translate(0 192)" fill="#091336"/>
<rect y="192" width="240" height="52" fill="#D8E4FB" fill-opacity="0.32"/>
<rect y="192" width="3" height="52" fill="#002CFB"/>
<path d="M53.9297 223.188C56.4219 223.188 58.2891 221.68 58.6406 219.438L58.6562 219.359H56.9141L56.8984 219.43C56.4688 220.859 55.4297 221.641 53.9297 221.641C51.8438 221.641 50.4922 219.969 50.4922 217.359V217.352C50.4922 214.742 51.8359 213.086 53.9297 213.086C55.4453 213.086 56.4922 213.891 56.8672 215.211L56.9141 215.367H58.6484L58.6406 215.297C58.2812 213.07 56.4141 211.539 53.9297 211.539C50.7344 211.539 48.7031 213.773 48.7031 217.352V217.359C48.7031 220.938 50.7344 223.188 53.9297 223.188ZM63.7031 223.164C66.0547 223.164 67.6016 221.539 67.6016 218.891V218.875C67.6016 216.242 66.0391 214.625 63.7031 214.625C61.3672 214.625 59.8047 216.25 59.8047 218.875V218.891C59.8047 221.531 61.3438 223.164 63.7031 223.164ZM63.7109 221.75C62.3906 221.75 61.5312 220.711 61.5312 218.891V218.875C61.5312 217.078 62.3984 216.039 63.7031 216.039C65.0156 216.039 65.8828 217.078 65.8828 218.875V218.891C65.8828 220.703 65.0312 221.75 63.7109 221.75ZM72.5781 223.164C74.9297 223.164 76.4766 221.539 76.4766 218.891V218.875C76.4766 216.242 74.9141 214.625 72.5781 214.625C70.2422 214.625 68.6797 216.25 68.6797 218.875V218.891C68.6797 221.531 70.2188 223.164 72.5781 223.164ZM72.5859 221.75C71.2656 221.75 70.4062 220.711 70.4062 218.891V218.875C70.4062 217.078 71.2734 216.039 72.5781 216.039C73.8906 216.039 74.7578 217.078 74.7578 218.875V218.891C74.7578 220.703 73.9062 221.75 72.5859 221.75ZM81.5781 223.164C84 223.164 85.4922 221.578 85.4922 219V218.984C85.4922 216.586 84.0703 215.047 81.8516 215.047C80.5547 215.047 79.5547 215.57 79.0234 216.547H78.9844L79 216.438C79.3203 214.195 80.0234 213.242 82.1797 213.164L82.8984 213.133C83.8438 213.102 84.6797 212.922 84.9531 212.703V211.305C84.4922 211.531 83.6484 211.68 82.8047 211.711L82.0703 211.734C78.9531 211.852 77.625 213.688 77.625 218.234V218.25C77.625 221.484 79.0078 223.164 81.5781 223.164ZM81.5625 221.75C80.1562 221.75 79.3516 220.766 79.3516 219.023V219.008C79.3516 217.359 80.1641 216.43 81.5625 216.43C82.9531 216.43 83.7656 217.359 83.7656 219.008V219.023C83.7656 220.766 82.9531 221.75 81.5625 221.75ZM86.9531 223H97.2422V225.227H98.7734V221.664H97.5078V214.781H95.8203V221.648H93.0781V214.781H91.3828V221.648H88.6406V214.781H86.9531V223ZM103.414 223.164C105.406 223.164 106.68 221.977 106.938 220.672L106.961 220.586H105.352L105.328 220.648C105.117 221.266 104.453 221.781 103.453 221.781C102.109 221.781 101.258 220.875 101.227 219.32H107.047V218.75C107.047 216.281 105.633 214.625 103.328 214.625C101.023 214.625 99.5391 216.344 99.5391 218.914V218.922C99.5391 221.516 101 223.164 103.414 223.164ZM103.336 216.008C104.438 216.008 105.242 216.703 105.375 218.125H101.25C101.406 216.75 102.242 216.008 103.336 216.008ZM113.891 223H115.578V214.781H113.891V218.094H110.188V214.781H108.5V223H110.188V219.43H113.891V223ZM117.391 223H119.055L122.828 217.227H122.898V223H124.578V214.781H122.914L119.141 220.531H119.062V214.781H117.391V223ZM131.078 223H132.758V214.781H129.422C127.5 214.781 126.25 215.844 126.25 217.547V217.562C126.25 218.703 126.953 219.555 128.094 219.891L125.852 223H127.773L129.758 220.18H131.078V223ZM129.508 218.875C128.555 218.875 127.961 218.328 127.961 217.555V217.539C127.961 216.648 128.547 216.117 129.508 216.117H131.078V218.875H129.508Z" fill="white"/>
<g filter="url(#filter0_d_8_3942)">
<circle cx="224" cy="218" r="4" fill="#EDDA01"/>
</g>
<path d="M32 210H16C14.9 210 14.01 210.9 14.01 212L14 224C14 225.1 14.9 226 16 226H32C33.1 226 34 225.1 34 224V212C34 210.9 33.1 210 32 210ZM32 224H16V214L24 219L32 214V224ZM24 217L16 212H32L24 217Z" fill="white"/>
<rect width="240" height="52" transform="translate(0 244)" fill="#091336"/>
<path d="M51.2031 269.977H52.8047C54.3516 269.977 55.2578 270.672 55.2578 271.844V271.859C55.2578 272.945 54.3047 273.656 52.8516 273.656C51.3672 273.656 50.4219 273.07 50.2969 272.031L50.2891 271.969H48.5781L48.5859 272.062C48.7031 273.922 50.3594 275.188 52.8516 275.188C55.2656 275.188 57.0469 273.797 57.0469 271.938V271.922C57.0469 270.406 56.1172 269.336 54.6094 269.148V269.086C55.8594 268.797 56.7031 267.75 56.7031 266.5V266.484C56.7031 264.742 55.1562 263.539 52.8906 263.539C50.5312 263.539 48.9922 264.703 48.875 266.609L48.8672 266.719H50.5469L50.5547 266.609C50.6875 265.641 51.5078 265.07 52.8359 265.07C54.1875 265.07 54.9688 265.672 54.9688 266.672V266.688C54.9688 267.766 54.1016 268.508 52.7578 268.508H51.2031V269.977ZM58.5312 275H62.3125C64.0938 275 65.2031 274.078 65.2031 272.641V272.625C65.2031 271.617 64.5 270.883 63.4375 270.742V270.68C64.2266 270.531 64.8359 269.758 64.8359 268.906V268.891C64.8359 267.586 63.8672 266.781 62.2656 266.781H58.5312V275ZM60.2031 270.172V268.031H61.9141C62.7266 268.031 63.1641 268.398 63.1641 269.078V269.094C63.1641 269.82 62.6953 270.172 61.7422 270.172H60.2031ZM60.2031 273.75V271.398H61.8047C62.9141 271.398 63.4688 271.766 63.4688 272.555V272.57C63.4688 273.352 62.9531 273.75 62 273.75H60.2031ZM70.2344 275.164C72.5859 275.164 74.1328 273.539 74.1328 270.891V270.875C74.1328 268.242 72.5703 266.625 70.2344 266.625C67.8984 266.625 66.3359 268.25 66.3359 270.875V270.891C66.3359 273.531 67.875 275.164 70.2344 275.164ZM70.2422 273.75C68.9219 273.75 68.0625 272.711 68.0625 270.891V270.875C68.0625 269.078 68.9297 268.039 70.2344 268.039C71.5469 268.039 72.4141 269.078 72.4141 270.875V270.891C72.4141 272.703 71.5625 273.75 70.2422 273.75ZM80.9688 275H82.6562V266.781H80.9688V270.094H77.2656V266.781H75.5781V275H77.2656V271.43H80.9688V275ZM86.4531 271.336L89.4766 275H91.5625L87.9609 270.641L91.4219 266.781H89.4297L86.4531 270.172H86.1562V266.781H84.4688V275H86.1562V271.336H86.4531ZM92.6562 275H94.3203L98.0938 269.227H98.1641V275H99.8438V266.781H98.1797L94.4062 272.531H94.3281V266.781H92.6562V275Z" fill="white" fill-opacity="0.6"/>
<path d="M18.54 263C18.6 263.89 18.75 264.76 18.99 265.59L17.79 266.79C17.38 265.59 17.12 264.32 17.03 263H18.54ZM28.4 275.02C29.25 275.26 30.12 275.41 31 275.47V276.96C29.68 276.87 28.41 276.61 27.2 276.21L28.4 275.02ZM19.5 261H16C15.45 261 15 261.45 15 262C15 271.39 22.61 279 32 279C32.55 279 33 278.55 33 278V274.51C33 273.96 32.55 273.51 32 273.51C30.76 273.51 29.55 273.31 28.43 272.94C28.33 272.9 28.22 272.89 28.12 272.89C27.86 272.89 27.61 272.99 27.41 273.18L25.21 275.38C22.38 273.93 20.06 271.62 18.62 268.79L20.82 266.59C21.1 266.31 21.18 265.92 21.07 265.57C20.7 264.45 20.5 263.25 20.5 262C20.5 261.45 20.05 261 19.5 261Z" fill="white" fill-opacity="0.56"/>
<rect width="240" height="52" transform="translate(0 296)" fill="#091336"/>
<path d="M50.8672 327V321.945H51.3047L55.7969 327H58.0625L52.7734 321.094L57.5938 315.727H55.5078L51.3047 320.57H50.8672V315.727H49.1172V327H50.8672ZM62.1719 327.164C64.5234 327.164 66.0703 325.539 66.0703 322.891V322.875C66.0703 320.242 64.5078 318.625 62.1719 318.625C59.8359 318.625 58.2734 320.25 58.2734 322.875V322.891C58.2734 325.531 59.8125 327.164 62.1719 327.164ZM62.1797 325.75C60.8594 325.75 60 324.711 60 322.891V322.875C60 321.078 60.8672 320.039 62.1719 320.039C63.4844 320.039 64.3516 321.078 64.3516 322.875V322.891C64.3516 324.703 63.5 325.75 62.1797 325.75ZM72.9062 327H74.5938V318.781H72.9062V322.094H69.2031V318.781H67.5156V327H69.2031V323.43H72.9062V327ZM82.6562 318.781H75.8203V320.125H78.3906V327H80.0859V320.125H82.6562V318.781ZM83.8906 329.734H85.5781V325.617H85.6172C86.1016 326.57 87.0469 327.164 88.2109 327.164C90.2734 327.164 91.625 325.516 91.625 322.898V322.891C91.625 320.266 90.2812 318.625 88.1875 318.625C87.0156 318.625 86.1094 319.219 85.6172 320.195H85.5781V318.781H83.8906V329.734ZM87.75 325.711C86.4766 325.711 85.5703 324.602 85.5703 322.898V322.891C85.5703 321.18 86.4688 320.07 87.75 320.07C89.0781 320.07 89.9062 321.141 89.9062 322.891V322.898C89.9062 324.633 89.0781 325.711 87.75 325.711ZM95.4922 327.148C96.5859 327.148 97.5312 326.586 98.0078 325.703H98.0469V327H99.7344V321.336C99.7344 319.688 98.4609 318.625 96.4531 318.625C94.4297 318.625 93.2031 319.711 93.0859 321.125L93.0781 321.211H94.6719L94.6875 321.141C94.8281 320.484 95.4297 320.023 96.4062 320.023C97.4531 320.023 98.0469 320.57 98.0469 321.477V322.094L95.8047 322.227C93.8594 322.344 92.75 323.219 92.75 324.648V324.664C92.75 326.141 93.8516 327.148 95.4922 327.148ZM94.4531 324.625V324.609C94.4531 323.914 95.0156 323.469 96.0312 323.406L98.0469 323.281V323.922C98.0469 324.992 97.1406 325.797 95.9531 325.797C95.0469 325.797 94.4531 325.344 94.4531 324.625ZM106.961 320.125V318.781H101.516V327H103.203V320.125H106.961ZM111.617 327.164C113.609 327.164 114.883 325.977 115.141 324.672L115.164 324.586H113.555L113.531 324.648C113.32 325.266 112.656 325.781 111.656 325.781C110.312 325.781 109.461 324.875 109.43 323.32H115.25V322.75C115.25 320.281 113.836 318.625 111.531 318.625C109.227 318.625 107.742 320.344 107.742 322.914V322.922C107.742 325.516 109.203 327.164 111.617 327.164ZM111.539 320.008C112.641 320.008 113.445 320.703 113.578 322.125H109.453C109.609 320.75 110.445 320.008 111.539 320.008ZM122.094 327H123.781V318.781H122.094V322.094H118.391V318.781H116.703V327H118.391V323.43H122.094V327ZM131.844 318.781H125.008V320.125H127.578V327H129.273V320.125H131.844V318.781ZM133.078 327H136.328C138.227 327 139.453 325.898 139.453 324.164V324.148C139.453 322.422 138.227 321.32 136.328 321.32H134.766V318.781H133.078V327ZM140.43 327H142.125V318.781H140.43V327ZM136.164 322.656C137.117 322.656 137.727 323.242 137.727 324.148V324.164C137.727 325.07 137.125 325.664 136.164 325.664H134.766V322.656H136.164Z" fill="white" fill-opacity="0.6"/>
<path d="M21 323.75C18.66 323.75 14 324.92 14 327.25V329H28V327.25C28 324.92 23.34 323.75 21 323.75ZM16.34 327C17.18 326.42 19.21 325.75 21 325.75C22.79 325.75 24.82 326.42 25.66 327H16.34ZM21 322C22.93 322 24.5 320.43 24.5 318.5C24.5 316.57 22.93 315 21 315C19.07 315 17.5 316.57 17.5 318.5C17.5 320.43 19.07 322 21 322ZM21 317C21.83 317 22.5 317.67 22.5 318.5C22.5 319.33 21.83 320 21 320C20.17 320 19.5 319.33 19.5 318.5C19.5 317.67 20.17 317 21 317ZM28.04 323.81C29.2 324.65 30 325.77 30 327.25V329H34V327.25C34 325.23 30.5 324.08 28.04 323.81ZM27 322C28.93 322 30.5 320.43 30.5 318.5C30.5 316.57 28.93 315 27 315C26.46 315 25.96 315.13 25.5 315.35C26.13 316.24 26.5 317.33 26.5 318.5C26.5 319.67 26.13 320.76 25.5 321.65C25.96 321.87 26.46 322 27 322Z" fill="white" fill-opacity="0.56"/>
<rect width="240" height="52" transform="translate(0 348)" fill="#091336"/>
<path d="M49.8281 381.227V379H57.7734V381.227H59.375V377.492H57.9688V367.727H50.625L50.2109 374.562C50.125 376.055 49.8438 377.016 49.0391 377.492H48.2188V381.227H49.8281ZM51.8359 374.648L52.1797 369.234H56.2188V377.492H51.0625V377.43C51.6016 376.789 51.7578 375.922 51.8359 374.648ZM64.25 379.164C66.6016 379.164 68.1484 377.539 68.1484 374.891V374.875C68.1484 372.242 66.5859 370.625 64.25 370.625C61.9141 370.625 60.3516 372.25 60.3516 374.875V374.891C60.3516 377.531 61.8906 379.164 64.25 379.164ZM64.2578 377.75C62.9375 377.75 62.0781 376.711 62.0781 374.891V374.875C62.0781 373.078 62.9453 372.039 64.25 372.039C65.5625 372.039 66.4297 373.078 66.4297 374.875V374.891C66.4297 376.703 65.5781 377.75 64.2578 377.75ZM71.5781 375.336L74.6016 379H76.6875L73.0859 374.641L76.5469 370.781H74.5547L71.5781 374.172H71.2812V370.781H69.5938V379H71.2812V375.336H71.5781ZM78.5938 381.742C80.2031 381.742 81.0625 381.086 81.6719 379.383L84.7344 370.781H82.9531L80.8828 377.469H80.8281L78.7578 370.781H76.9297L79.9219 379.008L79.7812 379.398C79.5 380.195 79.0625 380.406 78.2656 380.406C78.0391 380.406 77.8438 380.375 77.7109 380.344V381.664C77.9141 381.703 78.2656 381.742 78.5938 381.742ZM87.5 379V373.297H87.5547L90 378.68H91.2344L93.6875 373.297H93.7422V379H95.3906V370.781H93.3125L90.6719 376.805H90.6094L87.9922 370.781H85.8594V379H87.5ZM100.711 379.164C102.703 379.164 103.977 377.977 104.234 376.672L104.258 376.586H102.648L102.625 376.648C102.414 377.266 101.75 377.781 100.75 377.781C99.4062 377.781 98.5547 376.875 98.5234 375.32H104.344V374.75C104.344 372.281 102.93 370.625 100.625 370.625C98.3203 370.625 96.8359 372.344 96.8359 374.914V374.922C96.8359 377.516 98.2969 379.164 100.711 379.164ZM100.633 372.008C101.734 372.008 102.539 372.703 102.672 374.125H98.5469C98.7031 372.75 99.5391 372.008 100.633 372.008ZM111.188 379H112.875V370.781H111.188V374.094H107.484V370.781H105.797V379H107.484V375.43H111.188V379ZM120.938 370.781H114.102V372.125H116.672V379H118.367V372.125H120.938V370.781ZM122.172 379H125.422C127.32 379 128.547 377.898 128.547 376.164V376.148C128.547 374.422 127.32 373.32 125.422 373.32H123.859V370.781H122.172V379ZM129.523 379H131.219V370.781H129.523V379ZM125.258 374.656C126.211 374.656 126.82 375.242 126.82 376.148V376.164C126.82 377.07 126.219 377.664 125.258 377.664H123.859V374.656H125.258Z" fill="white" fill-opacity="0.6"/>
<path d="M20 378H28V380H20V378ZM20 374H28V376H20V374ZM26 364H18C16.9 364 16 364.9 16 366V382C16 383.1 16.89 384 17.99 384H30C31.1 384 32 383.1 32 382V370L26 364ZM30 382H18V366H25V371H30V382Z" fill="white" fill-opacity="0.56"/>
<rect width="240" height="52" transform="translate(0 400)" fill="#091336"/>
<path d="M49.1172 431H50.7266L56.5391 422.609H56.5781V431H58.3125V419.727H56.6953L50.8906 428.125H50.8516V419.727H49.1172V431ZM63.875 431.164C65.8516 431.164 67.2266 429.898 67.4062 428.25L67.4141 428.195H65.7969L65.7812 428.258C65.5781 429.148 64.9219 429.75 63.8828 429.75C62.5703 429.75 61.7031 428.695 61.7031 426.898V426.891C61.7031 425.133 62.5547 424.039 63.8672 424.039C64.9688 424.039 65.5938 424.719 65.7734 425.523L65.7891 425.586H67.3984L67.3906 425.531C67.25 423.984 65.9688 422.625 63.8594 422.625C61.5078 422.625 59.9766 424.273 59.9766 426.875V426.883C59.9766 429.516 61.4766 431.164 63.875 431.164ZM68.75 431H70.4375V424.125H74.0625V431H75.7578V422.781H68.75V431ZM81.1094 431.164C83.4609 431.164 85.0078 429.539 85.0078 426.891V426.875C85.0078 424.242 83.4453 422.625 81.1094 422.625C78.7734 422.625 77.2109 424.25 77.2109 426.875V426.891C77.2109 429.531 78.75 431.164 81.1094 431.164ZM81.1172 429.75C79.7969 429.75 78.9375 428.711 78.9375 426.891V426.875C78.9375 425.078 79.8047 424.039 81.1094 424.039C82.4219 424.039 83.2891 425.078 83.2891 426.875V426.891C83.2891 428.703 82.4375 429.75 81.1172 429.75ZM88.7109 427.312L88.9375 424.125H91.7734V431H93.4609V422.781H87.4531L87.1562 427.227C87.0547 428.719 86.7656 429.57 85.9141 429.57C85.7031 429.57 85.5547 429.539 85.4766 429.516V430.992C85.5938 431.031 85.8281 431.078 86.1484 431.078C87.9922 431.078 88.5469 429.617 88.7109 427.312ZM100.672 431H102.359V422.781H100.672V426.094H96.9688V422.781H95.2812V431H96.9688V427.43H100.672V431ZM104.172 431H105.836L109.609 425.227H109.68V431H111.359V422.781H109.695L105.922 428.531H105.844V422.781H104.172V431ZM119.422 422.781H112.586V424.125H115.156V431H116.852V424.125H119.422V422.781ZM124.008 431.164C126 431.164 127.273 429.977 127.531 428.672L127.555 428.586H125.945L125.922 428.648C125.711 429.266 125.047 429.781 124.047 429.781C122.703 429.781 121.852 428.875 121.82 427.32H127.641V426.75C127.641 424.281 126.227 422.625 123.922 422.625C121.617 422.625 120.133 424.344 120.133 426.914V426.922C120.133 429.516 121.594 431.164 124.008 431.164ZM123.93 424.008C125.031 424.008 125.836 424.703 125.969 426.125H121.844C122 424.75 122.836 424.008 123.93 424.008ZM131.352 427.312L131.578 424.125H134.414V431H136.102V422.781H130.094L129.797 427.227C129.695 428.719 129.406 429.57 128.555 429.57C128.344 429.57 128.195 429.539 128.117 429.516V430.992C128.234 431.031 128.469 431.078 128.789 431.078C130.633 431.078 131.188 429.617 131.352 427.312ZM137.922 431H139.586L143.359 425.227H143.43V431H145.109V422.781H143.445L139.672 428.531H139.594V422.781H137.922V431Z" fill="white" fill-opacity="0.6"/>
<path d="M22.25 427C22.25 427.69 21.69 428.25 21 428.25C20.31 428.25 19.75 427.69 19.75 427C19.75 426.31 20.31 425.75 21 425.75C21.69 425.75 22.25 426.31 22.25 427ZM27 425.75C26.31 425.75 25.75 426.31 25.75 427C25.75 427.69 26.31 428.25 27 428.25C27.69 428.25 28.25 427.69 28.25 427C28.25 426.31 27.69 425.75 27 425.75ZM34 426C34 431.52 29.52 436 24 436C18.48 436 14 431.52 14 426C14 420.48 18.48 416 24 416C29.52 416 34 420.48 34 426ZM22.66 418.12C24.06 420.44 26.6 422 29.5 422C29.96 422 30.41 421.95 30.84 421.88C29.44 419.56 26.9 418 24 418C23.54 418 23.09 418.05 22.66 418.12ZM16.42 423.47C18.13 422.5 19.45 420.92 20.08 419.03C18.37 420 17.05 421.58 16.42 423.47ZM32 426C32 425.22 31.88 424.47 31.67 423.76C30.97 423.91 30.25 424 29.5 424C26.37 424 23.58 422.56 21.74 420.31C20.69 422.87 18.6 424.88 16 425.86C16.01 425.9 16 425.95 16 426C16 430.41 19.59 434 24 434C28.41 434 32 430.41 32 426Z" fill="white" fill-opacity="0.56"/>
<rect width="240" height="52" transform="translate(0 452)" fill="#091336"/>
<path d="M53.9844 483.188C57.2422 483.188 59.2656 480.945 59.2656 477.367V477.352C59.2656 473.781 57.2344 471.539 53.9844 471.539C50.7422 471.539 48.7031 473.773 48.7031 477.352V477.367C48.7031 480.953 50.7344 483.188 53.9844 483.188ZM53.9844 481.641C51.8438 481.641 50.4844 479.992 50.4844 477.367V477.352C50.4844 474.727 51.8516 473.086 53.9844 473.086C56.125 473.086 57.4766 474.734 57.4766 477.352V477.367C57.4766 479.969 56.1484 481.641 53.9844 481.641ZM67.125 474.781H60.2891V476.125H62.8594V483H64.5547V476.125H67.125V474.781ZM74.9922 483V474.781H73.3047V478.148C72.9609 478.508 72.2969 478.758 71.6172 478.758C70.4609 478.758 69.8594 478.203 69.8594 477.102V474.781H68.1719V477.297C68.1719 479.078 69.2344 480.203 71.1719 480.203C71.9922 480.203 72.7656 479.945 73.2656 479.461H73.3047V483H74.9922ZM80.3203 483.164C82.3125 483.164 83.5859 481.977 83.8438 480.672L83.8672 480.586H82.2578L82.2344 480.648C82.0234 481.266 81.3594 481.781 80.3594 481.781C79.0156 481.781 78.1641 480.875 78.1328 479.32H83.9531V478.75C83.9531 476.281 82.5391 474.625 80.2344 474.625C77.9297 474.625 76.4453 476.344 76.4453 478.914V478.922C76.4453 481.516 77.9062 483.164 80.3203 483.164ZM80.2422 476.008C81.3438 476.008 82.1484 476.703 82.2812 478.125H78.1562C78.3125 476.75 79.1484 476.008 80.2422 476.008ZM91.3594 474.781H84.5234V476.125H87.0938V483H88.7891V476.125H91.3594V474.781ZM92.5938 483H95.8438C97.7422 483 98.9688 481.898 98.9688 480.164V480.148C98.9688 478.422 97.7422 477.32 95.8438 477.32H94.2812V474.781H92.5938V483ZM99.9453 483H101.641V474.781H99.9453V483ZM95.6797 478.656C96.6328 478.656 97.2422 479.242 97.2422 480.148V480.164C97.2422 481.07 96.6406 481.664 95.6797 481.664H94.2812V478.656H95.6797Z" fill="white" fill-opacity="0.6"/>
<path d="M32 472H29V470C29 468.89 28.11 468 27 468H21C19.89 468 19 468.89 19 470V472H16C14.89 472 14 472.89 14 474V485C14 486.11 14.89 487 16 487H32C33.11 487 34 486.11 34 485V474C34 472.89 33.11 472 32 472ZM21 470H27V472H21V470ZM32 485H16V483H32V485ZM32 480H16V474H19V476H21V474H27V476H29V474H32V480Z" fill="white" fill-opacity="0.56"/>
<rect width="240" height="52" transform="translate(0 504)" fill="#091336"/>
<path d="M49.1172 535H53.4062C55.5938 535 57.1172 533.602 57.1172 531.562V531.547C57.1172 529.523 55.5703 528.125 53.3672 528.125H50.8672V525.234H56.0234V523.727H49.1172V535ZM50.8672 533.516V529.586H52.9531C54.4609 529.586 55.3359 530.289 55.3359 531.547V531.562C55.3359 532.812 54.4688 533.516 52.9609 533.516H50.8672ZM61.1641 535.148C62.2578 535.148 63.2031 534.586 63.6797 533.703H63.7188V535H65.4062V529.336C65.4062 527.688 64.1328 526.625 62.125 526.625C60.1016 526.625 58.875 527.711 58.7578 529.125L58.75 529.211H60.3438L60.3594 529.141C60.5 528.484 61.1016 528.023 62.0781 528.023C63.125 528.023 63.7188 528.57 63.7188 529.477V530.094L61.4766 530.227C59.5312 530.344 58.4219 531.219 58.4219 532.648V532.664C58.4219 534.141 59.5234 535.148 61.1641 535.148ZM60.125 532.625V532.609C60.125 531.914 60.6875 531.469 61.7031 531.406L63.7188 531.281V531.922C63.7188 532.992 62.8125 533.797 61.625 533.797C60.7188 533.797 60.125 533.344 60.125 532.625ZM70.1484 535.164C72.1641 535.164 73.5 534.141 73.5 532.609V532.594C73.5 531.633 72.9062 530.977 71.8203 530.758V530.695C72.7031 530.492 73.2734 529.797 73.2734 528.914V528.898C73.2734 527.492 72.1172 526.625 70.2266 526.625C68.375 526.625 67.1641 527.5 66.9688 528.961L66.9609 529.023H68.5703L68.5781 528.969C68.7031 528.344 69.3203 527.961 70.2031 527.961C71.0938 527.961 71.625 528.375 71.625 529.078V529.094C71.625 529.828 71.1172 530.203 70.125 530.203H68.9453V531.43H70.1328C71.2734 531.43 71.8203 531.805 71.8203 532.594V532.609C71.8203 533.359 71.1797 533.82 70.1406 533.82C69.2109 533.82 68.6016 533.461 68.4141 532.797L68.3906 532.719H66.7344L66.7422 532.789C66.9062 534.242 68.2266 535.164 70.1484 535.164ZM77.3984 535.148C78.4922 535.148 79.4375 534.586 79.9141 533.703H79.9531V535H81.6406V529.336C81.6406 527.688 80.3672 526.625 78.3594 526.625C76.3359 526.625 75.1094 527.711 74.9922 529.125L74.9844 529.211H76.5781L76.5938 529.141C76.7344 528.484 77.3359 528.023 78.3125 528.023C79.3594 528.023 79.9531 528.57 79.9531 529.477V530.094L77.7109 530.227C75.7656 530.344 74.6562 531.219 74.6562 532.648V532.664C74.6562 534.141 75.7578 535.148 77.3984 535.148ZM76.3594 532.625V532.609C76.3594 531.914 76.9219 531.469 77.9375 531.406L79.9531 531.281V531.922C79.9531 532.992 79.0469 533.797 77.8594 533.797C76.9531 533.797 76.3594 533.344 76.3594 532.625ZM89.6328 535.164C91.6484 535.164 92.9844 534.141 92.9844 532.609V532.594C92.9844 531.633 92.3906 530.977 91.3047 530.758V530.695C92.1875 530.492 92.7578 529.797 92.7578 528.914V528.898C92.7578 527.492 91.6016 526.625 89.7109 526.625C87.8594 526.625 86.6484 527.5 86.4531 528.961L86.4453 529.023H88.0547L88.0625 528.969C88.1875 528.344 88.8047 527.961 89.6875 527.961C90.5781 527.961 91.1094 528.375 91.1094 529.078V529.094C91.1094 529.828 90.6016 530.203 89.6094 530.203H88.4297V531.43H89.6172C90.7578 531.43 91.3047 531.805 91.3047 532.594V532.609C91.3047 533.359 90.6641 533.82 89.625 533.82C88.6953 533.82 88.0859 533.461 87.8984 532.797L87.875 532.719H86.2188L86.2266 532.789C86.3906 534.242 87.7109 535.164 89.6328 535.164ZM99.8594 535H101.547V526.781H99.8594V530.094H96.1562V526.781H94.4688V535H96.1562V531.43H99.8594V535ZM105.773 535.148C106.867 535.148 107.812 534.586 108.289 533.703H108.328V535H110.016V529.336C110.016 527.688 108.742 526.625 106.734 526.625C104.711 526.625 103.484 527.711 103.367 529.125L103.359 529.211H104.953L104.969 529.141C105.109 528.484 105.711 528.023 106.688 528.023C107.734 528.023 108.328 528.57 108.328 529.477V530.094L106.086 530.227C104.141 530.344 103.031 531.219 103.031 532.648V532.664C103.031 534.141 104.133 535.148 105.773 535.148ZM104.734 532.625V532.609C104.734 531.914 105.297 531.469 106.312 531.406L108.328 531.281V531.922C108.328 532.992 107.422 533.797 106.234 533.797C105.328 533.797 104.734 533.344 104.734 532.625ZM117.188 535H118.875V526.781H117.188V530.094H113.484V526.781H111.797V535H113.484V531.43H117.188V535ZM120.688 535H122.352L126.125 529.227H126.195V535H127.875V526.781H126.211L122.438 532.531H122.359V526.781H120.688V535ZM133.359 525.883C134.984 525.883 135.961 524.906 135.961 523.555V523.508H134.625V523.562C134.625 524.242 134.164 524.82 133.367 524.82C132.539 524.82 132.102 524.242 132.102 523.562V523.508H130.773V523.555C130.773 524.906 131.75 525.883 133.359 525.883ZM129.688 535H131.352L135.125 529.227H135.195V535H136.875V526.781H135.211L131.438 532.531H131.359V526.781H129.688V535Z" fill="white" fill-opacity="0.6"/>
<path d="M33 522H15C13.9 522 13 522.9 13 524V537C13 538.1 13.9 539 15 539H33C34.1 539 35 538.1 35 537V524C35 522.9 34.1 522 33 522ZM15 537V524H23V537H15ZM33 537H25V524H33V537ZM26 527.5H32V529H26V527.5ZM26 530H32V531.5H26V530ZM26 532.5H32V534H26V532.5Z" fill="white" fill-opacity="0.56"/>
<rect width="240" height="52" transform="translate(0 556)" fill="#091336"/>
<path d="M49.1094 587H50.8594V582.008H56.6484V587H58.3984V575.727H56.6484V580.492H50.8594V575.727H49.1094V587ZM62.8359 587.148C63.9297 587.148 64.875 586.586 65.3516 585.703H65.3906V587H67.0781V581.336C67.0781 579.688 65.8047 578.625 63.7969 578.625C61.7734 578.625 60.5469 579.711 60.4297 581.125L60.4219 581.211H62.0156L62.0312 581.141C62.1719 580.484 62.7734 580.023 63.75 580.023C64.7969 580.023 65.3906 580.57 65.3906 581.477V582.094L63.1484 582.227C61.2031 582.344 60.0938 583.219 60.0938 584.648V584.664C60.0938 586.141 61.1953 587.148 62.8359 587.148ZM61.7969 584.625V584.609C61.7969 583.914 62.3594 583.469 63.375 583.406L65.3906 583.281V583.922C65.3906 584.992 64.4844 585.797 63.2969 585.797C62.3906 585.797 61.7969 585.344 61.7969 584.625ZM72.3906 587.164C74.3672 587.164 75.7422 585.898 75.9219 584.25L75.9297 584.195H74.3125L74.2969 584.258C74.0938 585.148 73.4375 585.75 72.3984 585.75C71.0859 585.75 70.2188 584.695 70.2188 582.898V582.891C70.2188 581.133 71.0703 580.039 72.3828 580.039C73.4844 580.039 74.1094 580.719 74.2891 581.523L74.3047 581.586H75.9141L75.9062 581.531C75.7656 579.984 74.4844 578.625 72.375 578.625C70.0234 578.625 68.4922 580.273 68.4922 582.875V582.883C68.4922 585.516 69.9922 587.164 72.3906 587.164ZM83.3438 578.781H76.5078V580.125H79.0781V587H80.7734V580.125H83.3438V578.781ZM84.5781 589.734H86.2656V585.617H86.3047C86.7891 586.57 87.7344 587.164 88.8984 587.164C90.9609 587.164 92.3125 585.516 92.3125 582.898V582.891C92.3125 580.266 90.9688 578.625 88.875 578.625C87.7031 578.625 86.7969 579.219 86.3047 580.195H86.2656V578.781H84.5781V589.734ZM88.4375 585.711C87.1641 585.711 86.2578 584.602 86.2578 582.898V582.891C86.2578 581.18 87.1562 580.07 88.4375 580.07C89.7656 580.07 90.5938 581.141 90.5938 582.891V582.898C90.5938 584.633 89.7656 585.711 88.4375 585.711ZM97.2969 587.164C99.6484 587.164 101.195 585.539 101.195 582.891V582.875C101.195 580.242 99.6328 578.625 97.2969 578.625C94.9609 578.625 93.3984 580.25 93.3984 582.875V582.891C93.3984 585.531 94.9375 587.164 97.2969 587.164ZM97.3047 585.75C95.9844 585.75 95.125 584.711 95.125 582.891V582.875C95.125 581.078 95.9922 580.039 97.2969 580.039C98.6094 580.039 99.4766 581.078 99.4766 582.875V582.891C99.4766 584.703 98.625 585.75 97.3047 585.75ZM106.312 577.883C107.938 577.883 108.914 576.906 108.914 575.555V575.508H107.578V575.562C107.578 576.242 107.117 576.82 106.32 576.82C105.492 576.82 105.055 576.242 105.055 575.562V575.508H103.727V575.555C103.727 576.906 104.703 577.883 106.312 577.883ZM102.641 587H104.305L108.078 581.227H108.148V587H109.828V578.781H108.164L104.391 584.531H104.312V578.781H102.641V587ZM113.625 583.336L116.648 587H118.734L115.133 582.641L118.594 578.781H116.602L113.625 582.172H113.328V578.781H111.641V587H113.328V583.336H113.625ZM119.828 587H121.492L125.266 581.227H125.336V587H127.016V578.781H125.352L121.578 584.531H121.5V578.781H119.828V587Z" fill="white" fill-opacity="0.6"/>
<path d="M31.4289 582.98C31.4689 582.66 31.4989 582.34 31.4989 582C31.4989 581.66 31.4689 581.34 31.4289 581.02L33.5389 579.37C33.7289 579.22 33.7789 578.95 33.6589 578.73L31.6589 575.27C31.5689 575.11 31.3989 575.02 31.2189 575.02C31.1589 575.02 31.0989 575.03 31.0489 575.05L28.5589 576.05C28.0389 575.65 27.4789 575.32 26.8689 575.07L26.4889 572.42C26.4589 572.18 26.2489 572 25.9989 572H21.9989C21.7489 572 21.5389 572.18 21.5089 572.42L21.1289 575.07C20.5189 575.32 19.9589 575.66 19.4389 576.05L16.9489 575.05C16.8889 575.03 16.8289 575.02 16.7689 575.02C16.5989 575.02 16.4289 575.11 16.3389 575.27L14.3389 578.73C14.2089 578.95 14.2689 579.22 14.4589 579.37L16.5689 581.02C16.5289 581.34 16.4989 581.67 16.4989 582C16.4989 582.33 16.5289 582.66 16.5689 582.98L14.4589 584.63C14.2689 584.78 14.2189 585.05 14.3389 585.27L16.3389 588.73C16.4289 588.89 16.5989 588.98 16.7789 588.98C16.8389 588.98 16.8989 588.97 16.9489 588.95L19.4389 587.95C19.9589 588.35 20.5189 588.68 21.1289 588.93L21.5089 591.58C21.5389 591.82 21.7489 592 21.9989 592H25.9989C26.2489 592 26.4589 591.82 26.4889 591.58L26.8689 588.93C27.4789 588.68 28.0389 588.34 28.5589 587.95L31.0489 588.95C31.1089 588.97 31.1689 588.98 31.2289 588.98C31.3989 588.98 31.5689 588.89 31.6589 588.73L33.6589 585.27C33.7789 585.05 33.7289 584.78 33.5389 584.63L31.4289 582.98ZM29.4489 581.27C29.4889 581.58 29.4989 581.79 29.4989 582C29.4989 582.21 29.4789 582.43 29.4489 582.73L29.3089 583.86L30.1989 584.56L31.2789 585.4L30.5789 586.61L29.3089 586.1L28.2689 585.68L27.3689 586.36C26.9389 586.68 26.5289 586.92 26.1189 587.09L25.0589 587.52L24.8989 588.65L24.6989 590H23.2989L23.1089 588.65L22.9489 587.52L21.8889 587.09C21.4589 586.91 21.0589 586.68 20.6589 586.38L19.7489 585.68L18.6889 586.11L17.4189 586.62L16.7189 585.41L17.7989 584.57L18.6889 583.87L18.5489 582.74C18.5189 582.43 18.4989 582.2 18.4989 582C18.4989 581.8 18.5189 581.57 18.5489 581.27L18.6889 580.14L17.7989 579.44L16.7189 578.6L17.4189 577.39L18.6889 577.9L19.7289 578.32L20.6289 577.64C21.0589 577.32 21.4689 577.08 21.8789 576.91L22.9389 576.48L23.0989 575.35L23.2989 574H24.6889L24.8789 575.35L25.0389 576.48L26.0989 576.91C26.5289 577.09 26.9289 577.32 27.3289 577.62L28.2389 578.32L29.2989 577.89L30.5689 577.38L31.2689 578.59L30.1989 579.44L29.3089 580.14L29.4489 581.27ZM23.9989 578C21.7889 578 19.9989 579.79 19.9989 582C19.9989 584.21 21.7889 586 23.9989 586C26.2089 586 27.9989 584.21 27.9989 582C27.9989 579.79 26.2089 578 23.9989 578ZM23.9989 584C22.8989 584 21.9989 583.1 21.9989 582C21.9989 580.9 22.8989 580 23.9989 580C25.0989 580 25.9989 580.9 25.9989 582C25.9989 583.1 25.0989 584 23.9989 584Z" fill="white" fill-opacity="0.56"/>
<rect width="240" height="52" transform="translate(0 80)" fill="#091336"/>
<path d="M49.1172 111H50.7266L56.5391 102.609H56.5781V111H58.3125V99.7266H56.6953L50.8906 108.125H50.8516V99.7266H49.1172V111ZM66.5938 102.781H59.7578V104.125H62.3281V111H64.0234V104.125H66.5938V102.781ZM71.2031 111.164C73.5547 111.164 75.1016 109.539 75.1016 106.891V106.875C75.1016 104.242 73.5391 102.625 71.2031 102.625C68.8672 102.625 67.3047 104.25 67.3047 106.875V106.891C67.3047 109.531 68.8438 111.164 71.2031 111.164ZM71.2109 109.75C69.8906 109.75 69.0312 108.711 69.0312 106.891V106.875C69.0312 105.078 69.8984 104.039 71.2031 104.039C72.5156 104.039 73.3828 105.078 73.3828 106.875V106.891C73.3828 108.703 72.5312 109.75 71.2109 109.75ZM81.9922 104.125V102.781H76.5469V111H78.2344V104.125H81.9922ZM83.4062 111H85.0703L88.8438 105.227H88.9141V111H90.5938V102.781H88.9297L85.1562 108.531H85.0781V102.781H83.4062V111Z" fill="white" fill-opacity="0.6"/>
<path d="M15 108L15.5 108.07L20.07 103.5C19.89 102.85 20.06 102.11 20.59 101.59C21.37 100.8 22.63 100.8 23.41 101.59C23.94 102.11 24.11 102.85 23.93 103.5L26.5 106.07L27 106C27.18 106 27.35 106 27.5 106.07L31.07 102.5C31 102.35 31 102.18 31 102C31 101.47 31.2107 100.961 31.5858 100.586C31.9609 100.211 32.4696 100 33 100C33.5304 100 34.0391 100.211 34.4142 100.586C34.7893 100.961 35 101.47 35 102C35 102.53 34.7893 103.039 34.4142 103.414C34.0391 103.789 33.5304 104 33 104C32.82 104 32.65 104 32.5 103.93L28.93 107.5C29 107.65 29 107.82 29 108C29 108.53 28.7893 109.039 28.4142 109.414C28.0391 109.789 27.5304 110 27 110C26.4696 110 25.9609 109.789 25.5858 109.414C25.2107 109.039 25 108.53 25 108L25.07 107.5L22.5 104.93C22.18 105 21.82 105 21.5 104.93L16.93 109.5L17 110C17 110.53 16.7893 111.039 16.4142 111.414C16.0391 111.789 15.5304 112 15 112C14.4696 112 13.9609 111.789 13.5858 111.414C13.2107 111.039 13 110.53 13 110C13 109.47 13.2107 108.961 13.5858 108.586C13.9609 108.211 14.4696 108 15 108Z" fill="white" fill-opacity="0.6"/>
<rect width="240" height="52" transform="translate(0 132)" fill="#091336"/>
<path d="M51.2031 157.977H52.8047C54.3516 157.977 55.2578 158.672 55.2578 159.844V159.859C55.2578 160.945 54.3047 161.656 52.8516 161.656C51.3672 161.656 50.4219 161.07 50.2969 160.031L50.2891 159.969H48.5781L48.5859 160.062C48.7031 161.922 50.3594 163.188 52.8516 163.188C55.2656 163.188 57.0469 161.797 57.0469 159.938V159.922C57.0469 158.406 56.1172 157.336 54.6094 157.148V157.086C55.8594 156.797 56.7031 155.75 56.7031 154.5V154.484C56.7031 152.742 55.1562 151.539 52.8906 151.539C50.5312 151.539 48.9922 152.703 48.875 154.609L48.8672 154.719H50.5469L50.5547 154.609C50.6875 153.641 51.5078 153.07 52.8359 153.07C54.1875 153.07 54.9688 153.672 54.9688 154.672V154.688C54.9688 155.766 54.1016 156.508 52.7578 156.508H51.2031V157.977ZM60.9453 163.148C62.0391 163.148 62.9844 162.586 63.4609 161.703H63.5V163H65.1875V157.336C65.1875 155.688 63.9141 154.625 61.9062 154.625C59.8828 154.625 58.6562 155.711 58.5391 157.125L58.5312 157.211H60.125L60.1406 157.141C60.2812 156.484 60.8828 156.023 61.8594 156.023C62.9062 156.023 63.5 156.57 63.5 157.477V158.094L61.2578 158.227C59.3125 158.344 58.2031 159.219 58.2031 160.648V160.664C58.2031 162.141 59.3047 163.148 60.9453 163.148ZM59.9062 160.625V160.609C59.9062 159.914 60.4688 159.469 61.4844 159.406L63.5 159.281V159.922C63.5 160.992 62.5938 161.797 61.4062 161.797C60.5 161.797 59.9062 161.344 59.9062 160.625ZM68.9531 159.336L71.9766 163H74.0625L70.4609 158.641L73.9219 154.781H71.9297L68.9531 158.172H68.6562V154.781H66.9688V163H68.6562V159.336H68.9531ZM77.3672 163.148C78.4609 163.148 79.4062 162.586 79.8828 161.703H79.9219V163H81.6094V157.336C81.6094 155.688 80.3359 154.625 78.3281 154.625C76.3047 154.625 75.0781 155.711 74.9609 157.125L74.9531 157.211H76.5469L76.5625 157.141C76.7031 156.484 77.3047 156.023 78.2812 156.023C79.3281 156.023 79.9219 156.57 79.9219 157.477V158.094L77.6797 158.227C75.7344 158.344 74.625 159.219 74.625 160.648V160.664C74.625 162.141 75.7266 163.148 77.3672 163.148ZM76.3281 160.625V160.609C76.3281 159.914 76.8906 159.469 77.9062 159.406L79.9219 159.281V159.922C79.9219 160.992 79.0156 161.797 77.8281 161.797C76.9219 161.797 76.3281 161.344 76.3281 160.625ZM86.3516 163.164C88.3672 163.164 89.7031 162.141 89.7031 160.609V160.594C89.7031 159.633 89.1094 158.977 88.0234 158.758V158.695C88.9062 158.492 89.4766 157.797 89.4766 156.914V156.898C89.4766 155.492 88.3203 154.625 86.4297 154.625C84.5781 154.625 83.3672 155.5 83.1719 156.961L83.1641 157.023H84.7734L84.7812 156.969C84.9062 156.344 85.5234 155.961 86.4062 155.961C87.2969 155.961 87.8281 156.375 87.8281 157.078V157.094C87.8281 157.828 87.3203 158.203 86.3281 158.203H85.1484V159.43H86.3359C87.4766 159.43 88.0234 159.805 88.0234 160.594V160.609C88.0234 161.359 87.3828 161.82 86.3438 161.82C85.4141 161.82 84.8047 161.461 84.6172 160.797L84.5938 160.719H82.9375L82.9453 160.789C83.1094 162.242 84.4297 163.164 86.3516 163.164ZM91.1875 163H94.4375C96.3359 163 97.5625 161.898 97.5625 160.164V160.148C97.5625 158.422 96.3359 157.32 94.4375 157.32H92.875V154.781H91.1875V163ZM98.5391 163H100.234V154.781H98.5391V163ZM94.2734 158.656C95.2266 158.656 95.8359 159.242 95.8359 160.148V160.164C95.8359 161.07 95.2344 161.664 94.2734 161.664H92.875V158.656H94.2734Z" fill="white" fill-opacity="0.6"/>
<path d="M30 153L28.59 151.59L22.25 157.93L23.66 159.34L30 153ZM34.24 151.59L23.66 162.17L19.48 158L18.07 159.41L23.66 165L35.66 153L34.24 151.59ZM12.41 159.41L18 165L19.41 163.59L13.83 158L12.41 159.41Z" fill="white" fill-opacity="0.56"/>
<rect width="240" height="52" transform="translate(0 184)" fill="#091336"/>
<path d="M53.9297 215.188C56.4219 215.188 58.2891 213.68 58.6406 211.438L58.6562 211.359H56.9141L56.8984 211.43C56.4688 212.859 55.4297 213.641 53.9297 213.641C51.8438 213.641 50.4922 211.969 50.4922 209.359V209.352C50.4922 206.742 51.8359 205.086 53.9297 205.086C55.4453 205.086 56.4922 205.891 56.8672 207.211L56.9141 207.367H58.6484L58.6406 207.297C58.2812 205.07 56.4141 203.539 53.9297 203.539C50.7344 203.539 48.7031 205.773 48.7031 209.352V209.359C48.7031 212.938 50.7344 215.188 53.9297 215.188ZM63.7031 215.164C66.0547 215.164 67.6016 213.539 67.6016 210.891V210.875C67.6016 208.242 66.0391 206.625 63.7031 206.625C61.3672 206.625 59.8047 208.25 59.8047 210.875V210.891C59.8047 213.531 61.3438 215.164 63.7031 215.164ZM63.7109 213.75C62.3906 213.75 61.5312 212.711 61.5312 210.891V210.875C61.5312 209.078 62.3984 208.039 63.7031 208.039C65.0156 208.039 65.8828 209.078 65.8828 210.875V210.891C65.8828 212.703 65.0312 213.75 63.7109 213.75ZM72.5781 215.164C74.9297 215.164 76.4766 213.539 76.4766 210.891V210.875C76.4766 208.242 74.9141 206.625 72.5781 206.625C70.2422 206.625 68.6797 208.25 68.6797 210.875V210.891C68.6797 213.531 70.2188 215.164 72.5781 215.164ZM72.5859 213.75C71.2656 213.75 70.4062 212.711 70.4062 210.891V210.875C70.4062 209.078 71.2734 208.039 72.5781 208.039C73.8906 208.039 74.7578 209.078 74.7578 210.875V210.891C74.7578 212.703 73.9062 213.75 72.5859 213.75ZM81.5781 215.164C84 215.164 85.4922 213.578 85.4922 211V210.984C85.4922 208.586 84.0703 207.047 81.8516 207.047C80.5547 207.047 79.5547 207.57 79.0234 208.547H78.9844L79 208.438C79.3203 206.195 80.0234 205.242 82.1797 205.164L82.8984 205.133C83.8438 205.102 84.6797 204.922 84.9531 204.703V203.305C84.4922 203.531 83.6484 203.68 82.8047 203.711L82.0703 203.734C78.9531 203.852 77.625 205.688 77.625 210.234V210.25C77.625 213.484 79.0078 215.164 81.5781 215.164ZM81.5625 213.75C80.1562 213.75 79.3516 212.766 79.3516 211.023V211.008C79.3516 209.359 80.1641 208.43 81.5625 208.43C82.9531 208.43 83.7656 209.359 83.7656 211.008V211.023C83.7656 212.766 82.9531 213.75 81.5625 213.75ZM86.9531 215H97.2422V217.227H98.7734V213.664H97.5078V206.781H95.8203V213.648H93.0781V206.781H91.3828V213.648H88.6406V206.781H86.9531V215ZM103.414 215.164C105.406 215.164 106.68 213.977 106.938 212.672L106.961 212.586H105.352L105.328 212.648C105.117 213.266 104.453 213.781 103.453 213.781C102.109 213.781 101.258 212.875 101.227 211.32H107.047V210.75C107.047 208.281 105.633 206.625 103.328 206.625C101.023 206.625 99.5391 208.344 99.5391 210.914V210.922C99.5391 213.516 101 215.164 103.414 215.164ZM103.336 208.008C104.438 208.008 105.242 208.703 105.375 210.125H101.25C101.406 208.75 102.242 208.008 103.336 208.008ZM113.891 215H115.578V206.781H113.891V210.094H110.188V206.781H108.5V215H110.188V211.43H113.891V215ZM117.391 215H119.055L122.828 209.227H122.898V215H124.578V206.781H122.914L119.141 212.531H119.062V206.781H117.391V215ZM131.078 215H132.758V206.781H129.422C127.5 206.781 126.25 207.844 126.25 209.547V209.562C126.25 210.703 126.953 211.555 128.094 211.891L125.852 215H127.773L129.758 212.18H131.078V215ZM129.508 210.875C128.555 210.875 127.961 210.328 127.961 209.555V209.539C127.961 208.648 128.547 208.117 129.508 208.117H131.078V210.875H129.508Z" fill="white" fill-opacity="0.6"/>
<path d="M32 202H16C14.9 202 14.01 202.9 14.01 204L14 216C14 217.1 14.9 218 16 218H32C33.1 218 34 217.1 34 216V204C34 202.9 33.1 202 32 202ZM32 216H16V206L24 211L32 206V216ZM24 209L16 204H32L24 209Z" fill="white" fill-opacity="0.56"/>
<rect width="240" height="52" transform="translate(0 236)" fill="#091336"/>
<rect y="236" width="240" height="52" fill="#D8E4FB" fill-opacity="0.32"/>
<rect y="236" width="3" height="52" fill="#005FF8"/>
<path d="M51.2031 261.977H52.8047C54.3516 261.977 55.2578 262.672 55.2578 263.844V263.859C55.2578 264.945 54.3047 265.656 52.8516 265.656C51.3672 265.656 50.4219 265.07 50.2969 264.031L50.2891 263.969H48.5781L48.5859 264.062C48.7031 265.922 50.3594 267.188 52.8516 267.188C55.2656 267.188 57.0469 265.797 57.0469 263.938V263.922C57.0469 262.406 56.1172 261.336 54.6094 261.148V261.086C55.8594 260.797 56.7031 259.75 56.7031 258.5V258.484C56.7031 256.742 55.1562 255.539 52.8906 255.539C50.5312 255.539 48.9922 256.703 48.875 258.609L48.8672 258.719H50.5469L50.5547 258.609C50.6875 257.641 51.5078 257.07 52.8359 257.07C54.1875 257.07 54.9688 257.672 54.9688 258.672V258.688C54.9688 259.766 54.1016 260.508 52.7578 260.508H51.2031V261.977ZM58.5312 267H62.3125C64.0938 267 65.2031 266.078 65.2031 264.641V264.625C65.2031 263.617 64.5 262.883 63.4375 262.742V262.68C64.2266 262.531 64.8359 261.758 64.8359 260.906V260.891C64.8359 259.586 63.8672 258.781 62.2656 258.781H58.5312V267ZM60.2031 262.172V260.031H61.9141C62.7266 260.031 63.1641 260.398 63.1641 261.078V261.094C63.1641 261.82 62.6953 262.172 61.7422 262.172H60.2031ZM60.2031 265.75V263.398H61.8047C62.9141 263.398 63.4688 263.766 63.4688 264.555V264.57C63.4688 265.352 62.9531 265.75 62 265.75H60.2031ZM70.2344 267.164C72.5859 267.164 74.1328 265.539 74.1328 262.891V262.875C74.1328 260.242 72.5703 258.625 70.2344 258.625C67.8984 258.625 66.3359 260.25 66.3359 262.875V262.891C66.3359 265.531 67.875 267.164 70.2344 267.164ZM70.2422 265.75C68.9219 265.75 68.0625 264.711 68.0625 262.891V262.875C68.0625 261.078 68.9297 260.039 70.2344 260.039C71.5469 260.039 72.4141 261.078 72.4141 262.875V262.891C72.4141 264.703 71.5625 265.75 70.2422 265.75ZM80.9688 267H82.6562V258.781H80.9688V262.094H77.2656V258.781H75.5781V267H77.2656V263.43H80.9688V267ZM86.4531 263.336L89.4766 267H91.5625L87.9609 262.641L91.4219 258.781H89.4297L86.4531 262.172H86.1562V258.781H84.4688V267H86.1562V263.336H86.4531ZM92.6562 267H94.3203L98.0938 261.227H98.1641V267H99.8438V258.781H98.1797L94.4062 264.531H94.3281V258.781H92.6562V267Z" fill="white"/>
<g filter="url(#filter1_d_8_3942)">
<circle cx="224" cy="262" r="4" fill="#FFD500"/>
</g>
<path d="M18.54 255C18.6 255.89 18.75 256.76 18.99 257.59L17.79 258.79C17.38 257.59 17.12 256.32 17.03 255H18.54ZM28.4 267.02C29.25 267.26 30.12 267.41 31 267.47V268.96C29.68 268.87 28.41 268.61 27.2 268.21L28.4 267.02ZM19.5 253H16C15.45 253 15 253.45 15 254C15 263.39 22.61 271 32 271C32.55 271 33 270.55 33 270V266.51C33 265.96 32.55 265.51 32 265.51C30.76 265.51 29.55 265.31 28.43 264.94C28.33 264.9 28.22 264.89 28.12 264.89C27.86 264.89 27.61 264.99 27.41 265.18L25.21 267.38C22.38 265.93 20.06 263.62 18.62 260.79L20.82 258.59C21.1 258.31 21.18 257.92 21.07 257.57C20.7 256.45 20.5 255.25 20.5 254C20.5 253.45 20.05 253 19.5 253Z" fill="white"/>
<rect width="240" height="52" transform="translate(0 288)" fill="#091336"/>
<path d="M50.8672 319V313.945H51.3047L55.7969 319H58.0625L52.7734 313.094L57.5938 307.727H55.5078L51.3047 312.57H50.8672V307.727H49.1172V319H50.8672ZM62.1719 319.164C64.5234 319.164 66.0703 317.539 66.0703 314.891V314.875C66.0703 312.242 64.5078 310.625 62.1719 310.625C59.8359 310.625 58.2734 312.25 58.2734 314.875V314.891C58.2734 317.531 59.8125 319.164 62.1719 319.164ZM62.1797 317.75C60.8594 317.75 60 316.711 60 314.891V314.875C60 313.078 60.8672 312.039 62.1719 312.039C63.4844 312.039 64.3516 313.078 64.3516 314.875V314.891C64.3516 316.703 63.5 317.75 62.1797 317.75ZM72.9062 319H74.5938V310.781H72.9062V314.094H69.2031V310.781H67.5156V319H69.2031V315.43H72.9062V319ZM82.6562 310.781H75.8203V312.125H78.3906V319H80.0859V312.125H82.6562V310.781ZM83.8906 321.734H85.5781V317.617H85.6172C86.1016 318.57 87.0469 319.164 88.2109 319.164C90.2734 319.164 91.625 317.516 91.625 314.898V314.891C91.625 312.266 90.2812 310.625 88.1875 310.625C87.0156 310.625 86.1094 311.219 85.6172 312.195H85.5781V310.781H83.8906V321.734ZM87.75 317.711C86.4766 317.711 85.5703 316.602 85.5703 314.898V314.891C85.5703 313.18 86.4688 312.07 87.75 312.07C89.0781 312.07 89.9062 313.141 89.9062 314.891V314.898C89.9062 316.633 89.0781 317.711 87.75 317.711ZM95.4922 319.148C96.5859 319.148 97.5312 318.586 98.0078 317.703H98.0469V319H99.7344V313.336C99.7344 311.688 98.4609 310.625 96.4531 310.625C94.4297 310.625 93.2031 311.711 93.0859 313.125L93.0781 313.211H94.6719L94.6875 313.141C94.8281 312.484 95.4297 312.023 96.4062 312.023C97.4531 312.023 98.0469 312.57 98.0469 313.477V314.094L95.8047 314.227C93.8594 314.344 92.75 315.219 92.75 316.648V316.664C92.75 318.141 93.8516 319.148 95.4922 319.148ZM94.4531 316.625V316.609C94.4531 315.914 95.0156 315.469 96.0312 315.406L98.0469 315.281V315.922C98.0469 316.992 97.1406 317.797 95.9531 317.797C95.0469 317.797 94.4531 317.344 94.4531 316.625ZM106.961 312.125V310.781H101.516V319H103.203V312.125H106.961ZM111.617 319.164C113.609 319.164 114.883 317.977 115.141 316.672L115.164 316.586H113.555L113.531 316.648C113.32 317.266 112.656 317.781 111.656 317.781C110.312 317.781 109.461 316.875 109.43 315.32H115.25V314.75C115.25 312.281 113.836 310.625 111.531 310.625C109.227 310.625 107.742 312.344 107.742 314.914V314.922C107.742 317.516 109.203 319.164 111.617 319.164ZM111.539 312.008C112.641 312.008 113.445 312.703 113.578 314.125H109.453C109.609 312.75 110.445 312.008 111.539 312.008ZM122.094 319H123.781V310.781H122.094V314.094H118.391V310.781H116.703V319H118.391V315.43H122.094V319ZM131.844 310.781H125.008V312.125H127.578V319H129.273V312.125H131.844V310.781ZM133.078 319H136.328C138.227 319 139.453 317.898 139.453 316.164V316.148C139.453 314.422 138.227 313.32 136.328 313.32H134.766V310.781H133.078V319ZM140.43 319H142.125V310.781H140.43V319ZM136.164 314.656C137.117 314.656 137.727 315.242 137.727 316.148V316.164C137.727 317.07 137.125 317.664 136.164 317.664H134.766V314.656H136.164Z" fill="white" fill-opacity="0.6"/>
<path d="M21 315.75C18.66 315.75 14 316.92 14 319.25V321H28V319.25C28 316.92 23.34 315.75 21 315.75ZM16.34 319C17.18 318.42 19.21 317.75 21 317.75C22.79 317.75 24.82 318.42 25.66 319H16.34ZM21 314C22.93 314 24.5 312.43 24.5 310.5C24.5 308.57 22.93 307 21 307C19.07 307 17.5 308.57 17.5 310.5C17.5 312.43 19.07 314 21 314ZM21 309C21.83 309 22.5 309.67 22.5 310.5C22.5 311.33 21.83 312 21 312C20.17 312 19.5 311.33 19.5 310.5C19.5 309.67 20.17 309 21 309ZM28.04 315.81C29.2 316.65 30 317.77 30 319.25V321H34V319.25C34 317.23 30.5 316.08 28.04 315.81ZM27 314C28.93 314 30.5 312.43 30.5 310.5C30.5 308.57 28.93 307 27 307C26.46 307 25.96 307.13 25.5 307.35C26.13 308.24 26.5 309.33 26.5 310.5C26.5 311.67 26.13 312.76 25.5 313.65C25.96 313.87 26.46 314 27 314Z" fill="white" fill-opacity="0.56"/>
<rect width="240" height="52" transform="translate(0 340)" fill="#091336"/>
<path d="M49.8281 373.227V371H57.7734V373.227H59.375V369.492H57.9688V359.727H50.625L50.2109 366.562C50.125 368.055 49.8438 369.016 49.0391 369.492H48.2188V373.227H49.8281ZM51.8359 366.648L52.1797 361.234H56.2188V369.492H51.0625V369.43C51.6016 368.789 51.7578 367.922 51.8359 366.648ZM64.25 371.164C66.6016 371.164 68.1484 369.539 68.1484 366.891V366.875C68.1484 364.242 66.5859 362.625 64.25 362.625C61.9141 362.625 60.3516 364.25 60.3516 366.875V366.891C60.3516 369.531 61.8906 371.164 64.25 371.164ZM64.2578 369.75C62.9375 369.75 62.0781 368.711 62.0781 366.891V366.875C62.0781 365.078 62.9453 364.039 64.25 364.039C65.5625 364.039 66.4297 365.078 66.4297 366.875V366.891C66.4297 368.703 65.5781 369.75 64.2578 369.75ZM71.5781 367.336L74.6016 371H76.6875L73.0859 366.641L76.5469 362.781H74.5547L71.5781 366.172H71.2812V362.781H69.5938V371H71.2812V367.336H71.5781ZM78.5938 373.742C80.2031 373.742 81.0625 373.086 81.6719 371.383L84.7344 362.781H82.9531L80.8828 369.469H80.8281L78.7578 362.781H76.9297L79.9219 371.008L79.7812 371.398C79.5 372.195 79.0625 372.406 78.2656 372.406C78.0391 372.406 77.8438 372.375 77.7109 372.344V373.664C77.9141 373.703 78.2656 373.742 78.5938 373.742ZM87.5 371V365.297H87.5547L90 370.68H91.2344L93.6875 365.297H93.7422V371H95.3906V362.781H93.3125L90.6719 368.805H90.6094L87.9922 362.781H85.8594V371H87.5ZM100.711 371.164C102.703 371.164 103.977 369.977 104.234 368.672L104.258 368.586H102.648L102.625 368.648C102.414 369.266 101.75 369.781 100.75 369.781C99.4062 369.781 98.5547 368.875 98.5234 367.32H104.344V366.75C104.344 364.281 102.93 362.625 100.625 362.625C98.3203 362.625 96.8359 364.344 96.8359 366.914V366.922C96.8359 369.516 98.2969 371.164 100.711 371.164ZM100.633 364.008C101.734 364.008 102.539 364.703 102.672 366.125H98.5469C98.7031 364.75 99.5391 364.008 100.633 364.008ZM111.188 371H112.875V362.781H111.188V366.094H107.484V362.781H105.797V371H107.484V367.43H111.188V371ZM120.938 362.781H114.102V364.125H116.672V371H118.367V364.125H120.938V362.781ZM122.172 371H125.422C127.32 371 128.547 369.898 128.547 368.164V368.148C128.547 366.422 127.32 365.32 125.422 365.32H123.859V362.781H122.172V371ZM129.523 371H131.219V362.781H129.523V371ZM125.258 366.656C126.211 366.656 126.82 367.242 126.82 368.148V368.164C126.82 369.07 126.219 369.664 125.258 369.664H123.859V366.656H125.258Z" fill="white" fill-opacity="0.6"/>
<path d="M20 370H28V372H20V370ZM20 366H28V368H20V366ZM26 356H18C16.9 356 16 356.9 16 358V374C16 375.1 16.89 376 17.99 376H30C31.1 376 32 375.1 32 374V362L26 356ZM30 374H18V358H25V363H30V374Z" fill="white" fill-opacity="0.56"/>
<rect width="240" height="52" transform="translate(0 392)" fill="#091336"/>
<path d="M49.1172 423H50.7266L56.5391 414.609H56.5781V423H58.3125V411.727H56.6953L50.8906 420.125H50.8516V411.727H49.1172V423ZM63.875 423.164C65.8516 423.164 67.2266 421.898 67.4062 420.25L67.4141 420.195H65.7969L65.7812 420.258C65.5781 421.148 64.9219 421.75 63.8828 421.75C62.5703 421.75 61.7031 420.695 61.7031 418.898V418.891C61.7031 417.133 62.5547 416.039 63.8672 416.039C64.9688 416.039 65.5938 416.719 65.7734 417.523L65.7891 417.586H67.3984L67.3906 417.531C67.25 415.984 65.9688 414.625 63.8594 414.625C61.5078 414.625 59.9766 416.273 59.9766 418.875V418.883C59.9766 421.516 61.4766 423.164 63.875 423.164ZM68.75 423H70.4375V416.125H74.0625V423H75.7578V414.781H68.75V423ZM81.1094 423.164C83.4609 423.164 85.0078 421.539 85.0078 418.891V418.875C85.0078 416.242 83.4453 414.625 81.1094 414.625C78.7734 414.625 77.2109 416.25 77.2109 418.875V418.891C77.2109 421.531 78.75 423.164 81.1094 423.164ZM81.1172 421.75C79.7969 421.75 78.9375 420.711 78.9375 418.891V418.875C78.9375 417.078 79.8047 416.039 81.1094 416.039C82.4219 416.039 83.2891 417.078 83.2891 418.875V418.891C83.2891 420.703 82.4375 421.75 81.1172 421.75ZM88.7109 419.312L88.9375 416.125H91.7734V423H93.4609V414.781H87.4531L87.1562 419.227C87.0547 420.719 86.7656 421.57 85.9141 421.57C85.7031 421.57 85.5547 421.539 85.4766 421.516V422.992C85.5938 423.031 85.8281 423.078 86.1484 423.078C87.9922 423.078 88.5469 421.617 88.7109 419.312ZM100.672 423H102.359V414.781H100.672V418.094H96.9688V414.781H95.2812V423H96.9688V419.43H100.672V423ZM104.172 423H105.836L109.609 417.227H109.68V423H111.359V414.781H109.695L105.922 420.531H105.844V414.781H104.172V423ZM119.422 414.781H112.586V416.125H115.156V423H116.852V416.125H119.422V414.781ZM124.008 423.164C126 423.164 127.273 421.977 127.531 420.672L127.555 420.586H125.945L125.922 420.648C125.711 421.266 125.047 421.781 124.047 421.781C122.703 421.781 121.852 420.875 121.82 419.32H127.641V418.75C127.641 416.281 126.227 414.625 123.922 414.625C121.617 414.625 120.133 416.344 120.133 418.914V418.922C120.133 421.516 121.594 423.164 124.008 423.164ZM123.93 416.008C125.031 416.008 125.836 416.703 125.969 418.125H121.844C122 416.75 122.836 416.008 123.93 416.008ZM131.352 419.312L131.578 416.125H134.414V423H136.102V414.781H130.094L129.797 419.227C129.695 420.719 129.406 421.57 128.555 421.57C128.344 421.57 128.195 421.539 128.117 421.516V422.992C128.234 423.031 128.469 423.078 128.789 423.078C130.633 423.078 131.188 421.617 131.352 419.312ZM137.922 423H139.586L143.359 417.227H143.43V423H145.109V414.781H143.445L139.672 420.531H139.594V414.781H137.922V423Z" fill="white" fill-opacity="0.6"/>
<path d="M24 412C25.1 412 26 412.9 26 414C26 415.1 25.1 416 24 416C22.9 416 22 415.1 22 414C22 412.9 22.9 412 24 412ZM24 421C26.7 421 29.8 422.29 30 423V424H18V423.01C18.2 422.29 21.3 421 24 421ZM24 410C21.79 410 20 411.79 20 414C20 416.21 21.79 418 24 418C26.21 418 28 416.21 28 414C28 411.79 26.21 410 24 410ZM24 419C21.33 419 16 420.34 16 423V426H32V423C32 420.34 26.67 419 24 419Z" fill="white" fill-opacity="0.6"/>
<rect width="240" height="52" transform="translate(0 444)" fill="#091336"/>
<path d="M53.9844 475.188C57.2422 475.188 59.2656 472.945 59.2656 469.367V469.352C59.2656 465.781 57.2344 463.539 53.9844 463.539C50.7422 463.539 48.7031 465.773 48.7031 469.352V469.367C48.7031 472.953 50.7344 475.188 53.9844 475.188ZM53.9844 473.641C51.8438 473.641 50.4844 471.992 50.4844 469.367V469.352C50.4844 466.727 51.8516 465.086 53.9844 465.086C56.125 465.086 57.4766 466.734 57.4766 469.352V469.367C57.4766 471.969 56.1484 473.641 53.9844 473.641ZM67.125 466.781H60.2891V468.125H62.8594V475H64.5547V468.125H67.125V466.781ZM74.9922 475V466.781H73.3047V470.148C72.9609 470.508 72.2969 470.758 71.6172 470.758C70.4609 470.758 69.8594 470.203 69.8594 469.102V466.781H68.1719V469.297C68.1719 471.078 69.2344 472.203 71.1719 472.203C71.9922 472.203 72.7656 471.945 73.2656 471.461H73.3047V475H74.9922ZM80.3203 475.164C82.3125 475.164 83.5859 473.977 83.8438 472.672L83.8672 472.586H82.2578L82.2344 472.648C82.0234 473.266 81.3594 473.781 80.3594 473.781C79.0156 473.781 78.1641 472.875 78.1328 471.32H83.9531V470.75C83.9531 468.281 82.5391 466.625 80.2344 466.625C77.9297 466.625 76.4453 468.344 76.4453 470.914V470.922C76.4453 473.516 77.9062 475.164 80.3203 475.164ZM80.2422 468.008C81.3438 468.008 82.1484 468.703 82.2812 470.125H78.1562C78.3125 468.75 79.1484 468.008 80.2422 468.008ZM91.3594 466.781H84.5234V468.125H87.0938V475H88.7891V468.125H91.3594V466.781ZM92.5938 475H95.8438C97.7422 475 98.9688 473.898 98.9688 472.164V472.148C98.9688 470.422 97.7422 469.32 95.8438 469.32H94.2812V466.781H92.5938V475ZM99.9453 475H101.641V466.781H99.9453V475ZM95.6797 470.656C96.6328 470.656 97.2422 471.242 97.2422 472.148V472.164C97.2422 473.07 96.6406 473.664 95.6797 473.664H94.2812V470.656H95.6797Z" fill="white" fill-opacity="0.6"/>
<path d="M32 464C32.58 464 33.05 464.2 33.42 464.59C33.8 465 34 465.45 34 466V477C34 477.55 33.8 478 33.42 478.41C33.05 478.8 32.58 479 32 479H16C15.42 479 14.95 478.8 14.58 478.41C14.2 478 14 477.55 14 477V466C14 465.45 14.2 465 14.58 464.59C14.95 464.2 15.42 464 16 464H20V462C20 461.42 20.2 460.95 20.58 460.58C20.95 460.2 21.42 460 22 460H26C26.58 460 27.05 460.2 27.42 460.58C27.8 460.95 28 461.42 28 462V464H32ZM16 466V477H32V466H16ZM26 464V462H22V464H26Z" fill="white" fill-opacity="0.6"/>
<rect width="240" height="52" transform="translate(0 496)" fill="#091336"/>
<path d="M49.1172 527H53.4062C55.5938 527 57.1172 525.602 57.1172 523.562V523.547C57.1172 521.523 55.5703 520.125 53.3672 520.125H50.8672V517.234H56.0234V515.727H49.1172V527ZM50.8672 525.516V521.586H52.9531C54.4609 521.586 55.3359 522.289 55.3359 523.547V523.562C55.3359 524.812 54.4688 525.516 52.9609 525.516H50.8672ZM61.1641 527.148C62.2578 527.148 63.2031 526.586 63.6797 525.703H63.7188V527H65.4062V521.336C65.4062 519.688 64.1328 518.625 62.125 518.625C60.1016 518.625 58.875 519.711 58.7578 521.125L58.75 521.211H60.3438L60.3594 521.141C60.5 520.484 61.1016 520.023 62.0781 520.023C63.125 520.023 63.7188 520.57 63.7188 521.477V522.094L61.4766 522.227C59.5312 522.344 58.4219 523.219 58.4219 524.648V524.664C58.4219 526.141 59.5234 527.148 61.1641 527.148ZM60.125 524.625V524.609C60.125 523.914 60.6875 523.469 61.7031 523.406L63.7188 523.281V523.922C63.7188 524.992 62.8125 525.797 61.625 525.797C60.7188 525.797 60.125 525.344 60.125 524.625ZM70.1484 527.164C72.1641 527.164 73.5 526.141 73.5 524.609V524.594C73.5 523.633 72.9062 522.977 71.8203 522.758V522.695C72.7031 522.492 73.2734 521.797 73.2734 520.914V520.898C73.2734 519.492 72.1172 518.625 70.2266 518.625C68.375 518.625 67.1641 519.5 66.9688 520.961L66.9609 521.023H68.5703L68.5781 520.969C68.7031 520.344 69.3203 519.961 70.2031 519.961C71.0938 519.961 71.625 520.375 71.625 521.078V521.094C71.625 521.828 71.1172 522.203 70.125 522.203H68.9453V523.43H70.1328C71.2734 523.43 71.8203 523.805 71.8203 524.594V524.609C71.8203 525.359 71.1797 525.82 70.1406 525.82C69.2109 525.82 68.6016 525.461 68.4141 524.797L68.3906 524.719H66.7344L66.7422 524.789C66.9062 526.242 68.2266 527.164 70.1484 527.164ZM77.3984 527.148C78.4922 527.148 79.4375 526.586 79.9141 525.703H79.9531V527H81.6406V521.336C81.6406 519.688 80.3672 518.625 78.3594 518.625C76.3359 518.625 75.1094 519.711 74.9922 521.125L74.9844 521.211H76.5781L76.5938 521.141C76.7344 520.484 77.3359 520.023 78.3125 520.023C79.3594 520.023 79.9531 520.57 79.9531 521.477V522.094L77.7109 522.227C75.7656 522.344 74.6562 523.219 74.6562 524.648V524.664C74.6562 526.141 75.7578 527.148 77.3984 527.148ZM76.3594 524.625V524.609C76.3594 523.914 76.9219 523.469 77.9375 523.406L79.9531 523.281V523.922C79.9531 524.992 79.0469 525.797 77.8594 525.797C76.9531 525.797 76.3594 525.344 76.3594 524.625ZM89.6328 527.164C91.6484 527.164 92.9844 526.141 92.9844 524.609V524.594C92.9844 523.633 92.3906 522.977 91.3047 522.758V522.695C92.1875 522.492 92.7578 521.797 92.7578 520.914V520.898C92.7578 519.492 91.6016 518.625 89.7109 518.625C87.8594 518.625 86.6484 519.5 86.4531 520.961L86.4453 521.023H88.0547L88.0625 520.969C88.1875 520.344 88.8047 519.961 89.6875 519.961C90.5781 519.961 91.1094 520.375 91.1094 521.078V521.094C91.1094 521.828 90.6016 522.203 89.6094 522.203H88.4297V523.43H89.6172C90.7578 523.43 91.3047 523.805 91.3047 524.594V524.609C91.3047 525.359 90.6641 525.82 89.625 525.82C88.6953 525.82 88.0859 525.461 87.8984 524.797L87.875 524.719H86.2188L86.2266 524.789C86.3906 526.242 87.7109 527.164 89.6328 527.164ZM99.8594 527H101.547V518.781H99.8594V522.094H96.1562V518.781H94.4688V527H96.1562V523.43H99.8594V527ZM105.773 527.148C106.867 527.148 107.812 526.586 108.289 525.703H108.328V527H110.016V521.336C110.016 519.688 108.742 518.625 106.734 518.625C104.711 518.625 103.484 519.711 103.367 521.125L103.359 521.211H104.953L104.969 521.141C105.109 520.484 105.711 520.023 106.688 520.023C107.734 520.023 108.328 520.57 108.328 521.477V522.094L106.086 522.227C104.141 522.344 103.031 523.219 103.031 524.648V524.664C103.031 526.141 104.133 527.148 105.773 527.148ZM104.734 524.625V524.609C104.734 523.914 105.297 523.469 106.312 523.406L108.328 523.281V523.922C108.328 524.992 107.422 525.797 106.234 525.797C105.328 525.797 104.734 525.344 104.734 524.625ZM117.188 527H118.875V518.781H117.188V522.094H113.484V518.781H111.797V527H113.484V523.43H117.188V527ZM120.688 527H122.352L126.125 521.227H126.195V527H127.875V518.781H126.211L122.438 524.531H122.359V518.781H120.688V527ZM133.359 517.883C134.984 517.883 135.961 516.906 135.961 515.555V515.508H134.625V515.562C134.625 516.242 134.164 516.82 133.367 516.82C132.539 516.82 132.102 516.242 132.102 515.562V515.508H130.773V515.555C130.773 516.906 131.75 517.883 133.359 517.883ZM129.688 527H131.352L135.125 521.227H135.195V527H136.875V518.781H135.211L131.438 524.531H131.359V518.781H129.688V527Z" fill="white" fill-opacity="0.6"/>
<path d="M24 519C26.21 519 28 517.21 28 515C28 512.79 26.21 511 24 511C21.79 511 20 512.79 20 515C20 517.21 21.79 519 24 519ZM24 513C25.1 513 26 513.9 26 515C26 516.1 25.1 517 24 517C22.9 517 22 516.1 22 515C22 513.9 22.9 513 24 513ZM24 521.55C21.64 519.35 18.48 518 15 518V529C18.48 529 21.64 530.35 24 532.55C26.36 530.36 29.52 529 33 529V518C29.52 518 26.36 519.35 24 521.55ZM31 527.13C28.47 527.47 26.07 528.43 24 529.95C21.94 528.43 19.53 527.46 17 527.12V520.17C19.1 520.55 21.05 521.52 22.64 523L24 524.28L25.36 523.01C26.95 521.53 28.9 520.56 31 520.18V527.13Z" fill="white" fill-opacity="0.6"/>
<rect width="240" height="52" transform="translate(0 548)" fill="#091336"/>
<path d="M49.1094 579H50.8594V574.008H56.6484V579H58.3984V567.727H56.6484V572.492H50.8594V567.727H49.1094V579ZM62.8359 579.148C63.9297 579.148 64.875 578.586 65.3516 577.703H65.3906V579H67.0781V573.336C67.0781 571.688 65.8047 570.625 63.7969 570.625C61.7734 570.625 60.5469 571.711 60.4297 573.125L60.4219 573.211H62.0156L62.0312 573.141C62.1719 572.484 62.7734 572.023 63.75 572.023C64.7969 572.023 65.3906 572.57 65.3906 573.477V574.094L63.1484 574.227C61.2031 574.344 60.0938 575.219 60.0938 576.648V576.664C60.0938 578.141 61.1953 579.148 62.8359 579.148ZM61.7969 576.625V576.609C61.7969 575.914 62.3594 575.469 63.375 575.406L65.3906 575.281V575.922C65.3906 576.992 64.4844 577.797 63.2969 577.797C62.3906 577.797 61.7969 577.344 61.7969 576.625ZM72.3906 579.164C74.3672 579.164 75.7422 577.898 75.9219 576.25L75.9297 576.195H74.3125L74.2969 576.258C74.0938 577.148 73.4375 577.75 72.3984 577.75C71.0859 577.75 70.2188 576.695 70.2188 574.898V574.891C70.2188 573.133 71.0703 572.039 72.3828 572.039C73.4844 572.039 74.1094 572.719 74.2891 573.523L74.3047 573.586H75.9141L75.9062 573.531C75.7656 571.984 74.4844 570.625 72.375 570.625C70.0234 570.625 68.4922 572.273 68.4922 574.875V574.883C68.4922 577.516 69.9922 579.164 72.3906 579.164ZM83.3438 570.781H76.5078V572.125H79.0781V579H80.7734V572.125H83.3438V570.781ZM84.5781 581.734H86.2656V577.617H86.3047C86.7891 578.57 87.7344 579.164 88.8984 579.164C90.9609 579.164 92.3125 577.516 92.3125 574.898V574.891C92.3125 572.266 90.9688 570.625 88.875 570.625C87.7031 570.625 86.7969 571.219 86.3047 572.195H86.2656V570.781H84.5781V581.734ZM88.4375 577.711C87.1641 577.711 86.2578 576.602 86.2578 574.898V574.891C86.2578 573.18 87.1562 572.07 88.4375 572.07C89.7656 572.07 90.5938 573.141 90.5938 574.891V574.898C90.5938 576.633 89.7656 577.711 88.4375 577.711ZM97.2969 579.164C99.6484 579.164 101.195 577.539 101.195 574.891V574.875C101.195 572.242 99.6328 570.625 97.2969 570.625C94.9609 570.625 93.3984 572.25 93.3984 574.875V574.891C93.3984 577.531 94.9375 579.164 97.2969 579.164ZM97.3047 577.75C95.9844 577.75 95.125 576.711 95.125 574.891V574.875C95.125 573.078 95.9922 572.039 97.2969 572.039C98.6094 572.039 99.4766 573.078 99.4766 574.875V574.891C99.4766 576.703 98.625 577.75 97.3047 577.75ZM106.312 569.883C107.938 569.883 108.914 568.906 108.914 567.555V567.508H107.578V567.562C107.578 568.242 107.117 568.82 106.32 568.82C105.492 568.82 105.055 568.242 105.055 567.562V567.508H103.727V567.555C103.727 568.906 104.703 569.883 106.312 569.883ZM102.641 579H104.305L108.078 573.227H108.148V579H109.828V570.781H108.164L104.391 576.531H104.312V570.781H102.641V579ZM113.625 575.336L116.648 579H118.734L115.133 574.641L118.594 570.781H116.602L113.625 574.172H113.328V570.781H111.641V579H113.328V575.336H113.625ZM119.828 579H121.492L125.266 573.227H125.336V579H127.016V570.781H125.352L121.578 576.531H121.5V570.781H119.828V579Z" fill="white" fill-opacity="0.6"/>
<path d="M31.4289 574.98C31.4689 574.66 31.4989 574.34 31.4989 574C31.4989 573.66 31.4689 573.34 31.4289 573.02L33.5389 571.37C33.7289 571.22 33.7789 570.95 33.6589 570.73L31.6589 567.27C31.5689 567.11 31.3989 567.02 31.2189 567.02C31.1589 567.02 31.0989 567.03 31.0489 567.05L28.5589 568.05C28.0389 567.65 27.4789 567.32 26.8689 567.07L26.4889 564.42C26.4589 564.18 26.2489 564 25.9989 564H21.9989C21.7489 564 21.5389 564.18 21.5089 564.42L21.1289 567.07C20.5189 567.32 19.9589 567.66 19.4389 568.05L16.9489 567.05C16.8889 567.03 16.8289 567.02 16.7689 567.02C16.5989 567.02 16.4289 567.11 16.3389 567.27L14.3389 570.73C14.2089 570.95 14.2689 571.22 14.4589 571.37L16.5689 573.02C16.5289 573.34 16.4989 573.67 16.4989 574C16.4989 574.33 16.5289 574.66 16.5689 574.98L14.4589 576.63C14.2689 576.78 14.2189 577.05 14.3389 577.27L16.3389 580.73C16.4289 580.89 16.5989 580.98 16.7789 580.98C16.8389 580.98 16.8989 580.97 16.9489 580.95L19.4389 579.95C19.9589 580.35 20.5189 580.68 21.1289 580.93L21.5089 583.58C21.5389 583.82 21.7489 584 21.9989 584H25.9989C26.2489 584 26.4589 583.82 26.4889 583.58L26.8689 580.93C27.4789 580.68 28.0389 580.34 28.5589 579.95L31.0489 580.95C31.1089 580.97 31.1689 580.98 31.2289 580.98C31.3989 580.98 31.5689 580.89 31.6589 580.73L33.6589 577.27C33.7789 577.05 33.7289 576.78 33.5389 576.63L31.4289 574.98ZM29.4489 573.27C29.4889 573.58 29.4989 573.79 29.4989 574C29.4989 574.21 29.4789 574.43 29.4489 574.73L29.3089 575.86L30.1989 576.56L31.2789 577.4L30.5789 578.61L29.3089 578.1L28.2689 577.68L27.3689 578.36C26.9389 578.68 26.5289 578.92 26.1189 579.09L25.0589 579.52L24.8989 580.65L24.6989 582H23.2989L23.1089 580.65L22.9489 579.52L21.8889 579.09C21.4589 578.91 21.0589 578.68 20.6589 578.38L19.7489 577.68L18.6889 578.11L17.4189 578.62L16.7189 577.41L17.7989 576.57L18.6889 575.87L18.5489 574.74C18.5189 574.43 18.4989 574.2 18.4989 574C18.4989 573.8 18.5189 573.57 18.5489 573.27L18.6889 572.14L17.7989 571.44L16.7189 570.6L17.4189 569.39L18.6889 569.9L19.7289 570.32L20.6289 569.64C21.0589 569.32 21.4689 569.08 21.8789 568.91L22.9389 568.48L23.0989 567.35L23.2989 566H24.6889L24.8789 567.35L25.0389 568.48L26.0989 568.91C26.5289 569.09 26.9289 569.32 27.3289 569.62L28.2389 570.32L29.2989 569.89L30.5689 569.38L31.2689 570.59L30.1989 571.44L29.3089 572.14L29.4489 573.27ZM23.9989 570C21.7889 570 19.9989 571.79 19.9989 574C19.9989 576.21 21.7889 578 23.9989 578C26.2089 578 27.9989 576.21 27.9989 574C27.9989 571.79 26.2089 570 23.9989 570ZM23.9989 576C22.8989 576 21.9989 575.1 21.9989 574C21.9989 572.9 22.8989 572 23.9989 572C25.0989 572 25.9989 572.9 25.9989 574C25.9989 575.1 25.0989 576 23.9989 576Z" fill="white" fill-opacity="0.56"/>
<rect x="20" y="664" width="200" height="44" rx="4" fill="#005FF8"/>
<path d="M56.5996 692.948V691H63.5518V692.948H64.9531V689.681H63.7227V681.136H57.2969L56.9346 687.117C56.8594 688.423 56.6133 689.264 55.9092 689.681H55.1914V692.948H56.5996ZM58.3564 687.192L58.6572 682.455H62.1914V689.681H57.6797V689.626C58.1514 689.065 58.2881 688.307 58.3564 687.192ZM69.2188 691.144C71.2764 691.144 72.6299 689.722 72.6299 687.404V687.391C72.6299 685.087 71.2627 683.672 69.2188 683.672C67.1748 683.672 65.8076 685.094 65.8076 687.391V687.404C65.8076 689.715 67.1543 691.144 69.2188 691.144ZM69.2256 689.906C68.0703 689.906 67.3184 688.997 67.3184 687.404V687.391C67.3184 685.818 68.0771 684.909 69.2188 684.909C70.3672 684.909 71.126 685.818 71.126 687.391V687.404C71.126 688.99 70.3809 689.906 69.2256 689.906ZM77.0938 691.144C79.2129 691.144 80.5186 689.756 80.5186 687.5V687.486C80.5186 685.388 79.2744 684.041 77.333 684.041C76.1982 684.041 75.3232 684.499 74.8584 685.354H74.8242L74.8379 685.258C75.1182 683.296 75.7334 682.462 77.6201 682.394L78.249 682.366C79.0762 682.339 79.8076 682.182 80.0469 681.99V680.767C79.6436 680.965 78.9053 681.095 78.167 681.122L77.5244 681.143C74.7969 681.245 73.6348 682.852 73.6348 686.83V686.844C73.6348 689.674 74.8447 691.144 77.0938 691.144ZM77.0801 689.906C75.8496 689.906 75.1455 689.045 75.1455 687.521V687.507C75.1455 686.064 75.8564 685.251 77.0801 685.251C78.2969 685.251 79.0078 686.064 79.0078 687.507V687.521C79.0078 689.045 78.2969 689.906 77.0801 689.906ZM83.9092 691.13C84.8662 691.13 85.6934 690.638 86.1104 689.865H86.1445V691H87.6211V686.044C87.6211 684.602 86.5068 683.672 84.75 683.672C82.9795 683.672 81.9062 684.622 81.8037 685.859L81.7969 685.935H83.1914L83.2051 685.873C83.3281 685.299 83.8545 684.896 84.709 684.896C85.625 684.896 86.1445 685.374 86.1445 686.167V686.707L84.1826 686.823C82.4805 686.926 81.5098 687.691 81.5098 688.942V688.956C81.5098 690.248 82.4736 691.13 83.9092 691.13ZM83 688.922V688.908C83 688.3 83.4922 687.91 84.3809 687.855L86.1445 687.746V688.307C86.1445 689.243 85.3516 689.947 84.3125 689.947C83.5195 689.947 83 689.551 83 688.922ZM89.1797 691H92.4883C94.0469 691 95.0176 690.193 95.0176 688.936V688.922C95.0176 688.04 94.4023 687.397 93.4727 687.274V687.22C94.1631 687.09 94.6963 686.413 94.6963 685.668V685.654C94.6963 684.513 93.8486 683.809 92.4473 683.809H89.1797V691ZM90.6426 686.775V684.902H92.1396C92.8506 684.902 93.2334 685.224 93.2334 685.818V685.832C93.2334 686.468 92.8232 686.775 91.9893 686.775H90.6426ZM90.6426 689.906V687.849H92.0439C93.0146 687.849 93.5 688.17 93.5 688.86V688.874C93.5 689.558 93.0488 689.906 92.2148 689.906H90.6426ZM96.3301 691H97.7861L101.088 685.948H101.149V691H102.619V683.809H101.163L97.8613 688.84H97.793V683.809H96.3301V691ZM109.674 683.809H103.692V684.984H105.941V691H107.425V684.984H109.674V683.809ZM110.754 691H113.598C115.259 691 116.332 690.036 116.332 688.519V688.505C116.332 686.994 115.259 686.03 113.598 686.03H112.23V683.809H110.754V691ZM113.454 687.199C114.288 687.199 114.821 687.712 114.821 688.505V688.519C114.821 689.312 114.295 689.831 113.454 689.831H112.23V687.199H113.454ZM122.997 691.144C124.761 691.144 125.93 690.248 125.93 688.908V688.895C125.93 688.054 125.41 687.479 124.46 687.288V687.233C125.232 687.056 125.731 686.447 125.731 685.675V685.661C125.731 684.431 124.72 683.672 123.065 683.672C121.445 683.672 120.386 684.438 120.215 685.716L120.208 685.771H121.616L121.623 685.723C121.732 685.176 122.272 684.841 123.045 684.841C123.824 684.841 124.289 685.203 124.289 685.818V685.832C124.289 686.475 123.845 686.803 122.977 686.803H121.944V687.876H122.983C123.981 687.876 124.46 688.204 124.46 688.895V688.908C124.46 689.564 123.899 689.968 122.99 689.968C122.177 689.968 121.644 689.653 121.479 689.072L121.459 689.004H120.01L120.017 689.065C120.16 690.337 121.315 691.144 122.997 691.144ZM129.341 691.13C130.298 691.13 131.125 690.638 131.542 689.865H131.576V691H133.053V686.044C133.053 684.602 131.938 683.672 130.182 683.672C128.411 683.672 127.338 684.622 127.235 685.859L127.229 685.935H128.623L128.637 685.873C128.76 685.299 129.286 684.896 130.141 684.896C131.057 684.896 131.576 685.374 131.576 686.167V686.707L129.614 686.823C127.912 686.926 126.941 687.691 126.941 688.942V688.956C126.941 690.248 127.905 691.13 129.341 691.13ZM128.432 688.922V688.908C128.432 688.3 128.924 687.91 129.812 687.855L131.576 687.746V688.307C131.576 689.243 130.783 689.947 129.744 689.947C128.951 689.947 128.432 689.551 128.432 688.922ZM136.348 687.794L138.993 691H140.818L137.667 687.186L140.695 683.809H138.952L136.348 686.775H136.088V683.809H134.611V691H136.088V687.794H136.348ZM143.71 691.13C144.667 691.13 145.494 690.638 145.911 689.865H145.945V691H147.422V686.044C147.422 684.602 146.308 683.672 144.551 683.672C142.78 683.672 141.707 684.622 141.604 685.859L141.598 685.935H142.992L143.006 685.873C143.129 685.299 143.655 684.896 144.51 684.896C145.426 684.896 145.945 685.374 145.945 686.167V686.707L143.983 686.823C142.281 686.926 141.311 687.691 141.311 688.942V688.956C141.311 690.248 142.274 691.13 143.71 691.13ZM142.801 688.922V688.908C142.801 688.3 143.293 687.91 144.182 687.855L145.945 687.746V688.307C145.945 689.243 145.152 689.947 144.113 689.947C143.32 689.947 142.801 689.551 142.801 688.922ZM151.571 691.144C153.335 691.144 154.504 690.248 154.504 688.908V688.895C154.504 688.054 153.984 687.479 153.034 687.288V687.233C153.807 687.056 154.306 686.447 154.306 685.675V685.661C154.306 684.431 153.294 683.672 151.64 683.672C150.02 683.672 148.96 684.438 148.789 685.716L148.782 685.771H150.19L150.197 685.723C150.307 685.176 150.847 684.841 151.619 684.841C152.398 684.841 152.863 685.203 152.863 685.818V685.832C152.863 686.475 152.419 686.803 151.551 686.803H150.519V687.876H151.558C152.556 687.876 153.034 688.204 153.034 688.895V688.908C153.034 689.564 152.474 689.968 151.564 689.968C150.751 689.968 150.218 689.653 150.054 689.072L150.033 689.004H148.584L148.591 689.065C148.734 690.337 149.89 691.144 151.571 691.144Z" fill="white"/>
<path d="M186 676C180.48 676 176 680.48 176 686C176 691.52 180.48 696 186 696C191.52 696 196 691.52 196 686C196 680.48 191.52 676 186 676ZM191 687H187V691H185V687H181V685H185V681H187V685H191V687Z" fill="white" fill-opacity="0.4"/>
<rect x="20" y="664" width="200" height="52" rx="4" fill="#005FF8"/>
<path d="M45.8281 697.227V695H53.7734V697.227H55.375V693.492H53.9688V683.727H46.625L46.2109 690.562C46.125 692.055 45.8438 693.016 45.0391 693.492H44.2188V697.227H45.8281ZM47.8359 690.648L48.1797 685.234H52.2188V693.492H47.0625V693.43C47.6016 692.789 47.7578 691.922 47.8359 690.648ZM60.25 695.164C62.6016 695.164 64.1484 693.539 64.1484 690.891V690.875C64.1484 688.242 62.5859 686.625 60.25 686.625C57.9141 686.625 56.3516 688.25 56.3516 690.875V690.891C56.3516 693.531 57.8906 695.164 60.25 695.164ZM60.2578 693.75C58.9375 693.75 58.0781 692.711 58.0781 690.891V690.875C58.0781 689.078 58.9453 688.039 60.25 688.039C61.5625 688.039 62.4297 689.078 62.4297 690.875V690.891C62.4297 692.703 61.5781 693.75 60.2578 693.75ZM69.25 695.164C71.6719 695.164 73.1641 693.578 73.1641 691V690.984C73.1641 688.586 71.7422 687.047 69.5234 687.047C68.2266 687.047 67.2266 687.57 66.6953 688.547H66.6562L66.6719 688.438C66.9922 686.195 67.6953 685.242 69.8516 685.164L70.5703 685.133C71.5156 685.102 72.3516 684.922 72.625 684.703V683.305C72.1641 683.531 71.3203 683.68 70.4766 683.711L69.7422 683.734C66.625 683.852 65.2969 685.688 65.2969 690.234V690.25C65.2969 693.484 66.6797 695.164 69.25 695.164ZM69.2344 693.75C67.8281 693.75 67.0234 692.766 67.0234 691.023V691.008C67.0234 689.359 67.8359 688.43 69.2344 688.43C70.625 688.43 71.4375 689.359 71.4375 691.008V691.023C71.4375 692.766 70.625 693.75 69.2344 693.75ZM77.0391 695.148C78.1328 695.148 79.0781 694.586 79.5547 693.703H79.5938V695H81.2812V689.336C81.2812 687.688 80.0078 686.625 78 686.625C75.9766 686.625 74.75 687.711 74.6328 689.125L74.625 689.211H76.2188L76.2344 689.141C76.375 688.484 76.9766 688.023 77.9531 688.023C79 688.023 79.5938 688.57 79.5938 689.477V690.094L77.3516 690.227C75.4062 690.344 74.2969 691.219 74.2969 692.648V692.664C74.2969 694.141 75.3984 695.148 77.0391 695.148ZM76 692.625V692.609C76 691.914 76.5625 691.469 77.5781 691.406L79.5938 691.281V691.922C79.5938 692.992 78.6875 693.797 77.5 693.797C76.5938 693.797 76 693.344 76 692.625ZM83.0625 695H86.8438C88.625 695 89.7344 694.078 89.7344 692.641V692.625C89.7344 691.617 89.0312 690.883 87.9688 690.742V690.68C88.7578 690.531 89.3672 689.758 89.3672 688.906V688.891C89.3672 687.586 88.3984 686.781 86.7969 686.781H83.0625V695ZM84.7344 690.172V688.031H86.4453C87.2578 688.031 87.6953 688.398 87.6953 689.078V689.094C87.6953 689.82 87.2266 690.172 86.2734 690.172H84.7344ZM84.7344 693.75V691.398H86.3359C87.4453 691.398 88 691.766 88 692.555V692.57C88 693.352 87.4844 693.75 86.5312 693.75H84.7344ZM91.2344 695H92.8984L96.6719 689.227H96.7422V695H98.4219V686.781H96.7578L92.9844 692.531H92.9062V686.781H91.2344V695ZM106.484 686.781H99.6484V688.125H102.219V695H103.914V688.125H106.484V686.781ZM107.719 695H110.969C112.867 695 114.094 693.898 114.094 692.164V692.148C114.094 690.422 112.867 689.32 110.969 689.32H109.406V686.781H107.719V695ZM110.805 690.656C111.758 690.656 112.367 691.242 112.367 692.148V692.164C112.367 693.07 111.766 693.664 110.805 693.664H109.406V690.656H110.805ZM121.711 695.164C123.727 695.164 125.062 694.141 125.062 692.609V692.594C125.062 691.633 124.469 690.977 123.383 690.758V690.695C124.266 690.492 124.836 689.797 124.836 688.914V688.898C124.836 687.492 123.68 686.625 121.789 686.625C119.938 686.625 118.727 687.5 118.531 688.961L118.523 689.023H120.133L120.141 688.969C120.266 688.344 120.883 687.961 121.766 687.961C122.656 687.961 123.188 688.375 123.188 689.078V689.094C123.188 689.828 122.68 690.203 121.688 690.203H120.508V691.43H121.695C122.836 691.43 123.383 691.805 123.383 692.594V692.609C123.383 693.359 122.742 693.82 121.703 693.82C120.773 693.82 120.164 693.461 119.977 692.797L119.953 692.719H118.297L118.305 692.789C118.469 694.242 119.789 695.164 121.711 695.164ZM128.961 695.148C130.055 695.148 131 694.586 131.477 693.703H131.516V695H133.203V689.336C133.203 687.688 131.93 686.625 129.922 686.625C127.898 686.625 126.672 687.711 126.555 689.125L126.547 689.211H128.141L128.156 689.141C128.297 688.484 128.898 688.023 129.875 688.023C130.922 688.023 131.516 688.57 131.516 689.477V690.094L129.273 690.227C127.328 690.344 126.219 691.219 126.219 692.648V692.664C126.219 694.141 127.32 695.148 128.961 695.148ZM127.922 692.625V692.609C127.922 691.914 128.484 691.469 129.5 691.406L131.516 691.281V691.922C131.516 692.992 130.609 693.797 129.422 693.797C128.516 693.797 127.922 693.344 127.922 692.625ZM136.969 691.336L139.992 695H142.078L138.477 690.641L141.938 686.781H139.945L136.969 690.172H136.672V686.781H134.984V695H136.672V691.336H136.969ZM145.383 695.148C146.477 695.148 147.422 694.586 147.898 693.703H147.938V695H149.625V689.336C149.625 687.688 148.352 686.625 146.344 686.625C144.32 686.625 143.094 687.711 142.977 689.125L142.969 689.211H144.562L144.578 689.141C144.719 688.484 145.32 688.023 146.297 688.023C147.344 688.023 147.938 688.57 147.938 689.477V690.094L145.695 690.227C143.75 690.344 142.641 691.219 142.641 692.648V692.664C142.641 694.141 143.742 695.148 145.383 695.148ZM144.344 692.625V692.609C144.344 691.914 144.906 691.469 145.922 691.406L147.938 691.281V691.922C147.938 692.992 147.031 693.797 145.844 693.797C144.938 693.797 144.344 693.344 144.344 692.625ZM154.367 695.164C156.383 695.164 157.719 694.141 157.719 692.609V692.594C157.719 691.633 157.125 690.977 156.039 690.758V690.695C156.922 690.492 157.492 689.797 157.492 688.914V688.898C157.492 687.492 156.336 686.625 154.445 686.625C152.594 686.625 151.383 687.5 151.188 688.961L151.18 689.023H152.789L152.797 688.969C152.922 688.344 153.539 687.961 154.422 687.961C155.312 687.961 155.844 688.375 155.844 689.078V689.094C155.844 689.828 155.336 690.203 154.344 690.203H153.164V691.43H154.352C155.492 691.43 156.039 691.805 156.039 692.594V692.609C156.039 693.359 155.398 693.82 154.359 693.82C153.43 693.82 152.82 693.461 152.633 692.797L152.609 692.719H150.953L150.961 692.789C151.125 694.242 152.445 695.164 154.367 695.164Z" fill="white"/>
<path d="M188 678C181.376 678 176 683.376 176 690C176 696.624 181.376 702 188 702C194.624 702 200 696.624 200 690C200 683.376 194.624 678 188 678ZM194 691.2H189.2V696H186.8V691.2H182V688.8H186.8V684H189.2V688.8H194V691.2Z" fill="#D8E4FB" fill-opacity="0.56"/>
<path fill-rule="evenodd" clip-rule="evenodd" d="M47.1947 27.4725V20L51.7212 23.7274L47.1947 27.4725ZM15.272 46.3924C16.8147 47.4523 18.7304 47.9823 21.0021 47.9823C23.4603 47.9823 25.4777 47.3286 27.0374 46.0391C28.5802 44.7318 29.3431 42.9829 29.3431 40.7747C29.3431 40.1034 29.2583 39.4675 29.0888 38.8845C28.9192 38.3015 28.7327 37.8069 28.4954 37.4006C28.2581 36.9766 27.936 36.588 27.4952 36.1993C27.0544 35.8107 26.6645 35.5104 26.3254 35.2807C25.9863 35.0511 25.5117 34.8038 24.8844 34.5388C24.2571 34.2738 23.7655 34.0795 23.4095 33.9558C23.2719 33.9102 23.1137 33.8574 22.9338 33.7974L22.9321 33.7968C22.6245 33.6942 22.2539 33.5705 21.8159 33.4258C20.1206 32.8782 18.9677 32.3659 18.3574 31.9066C17.7641 31.4473 17.4589 30.8467 17.4589 30.087C17.4589 29.3804 17.7132 28.7975 18.2557 28.3558C18.7982 27.9142 19.5441 27.6845 20.4766 27.6845C22.477 27.6845 23.952 28.7091 24.8674 30.7583L28.6649 28.4795C27.8851 26.7836 26.7831 25.4763 25.376 24.5224C23.9689 23.5861 22.3414 23.1091 20.4766 23.1091C18.4083 23.1091 16.6282 23.7451 15.1533 25.0347C13.6784 26.3243 12.9324 28.0555 12.9324 30.2107C12.9324 31.306 13.1189 32.2599 13.4749 33.0902C13.8479 33.9028 14.3904 34.5918 15.1024 35.1217C15.8145 35.6694 16.5265 36.0933 17.2385 36.4113C17.9506 36.7293 18.8152 37.0473 19.8493 37.3653C21.6972 37.9129 22.9856 38.4252 23.7146 38.8845C24.4436 39.3438 24.7996 39.9974 24.7996 40.8454C24.7996 41.5697 24.5114 42.1703 23.9181 42.6473C23.3417 43.1242 22.4092 43.3716 21.1377 43.3716C18.527 43.3716 16.7638 42.1526 15.8653 39.7148L12 42.0643C12.6273 43.9015 13.7123 45.3324 15.272 46.3924ZM54.1794 47.4524V28.7445L58.672 26.7836V47.4524H54.1794ZM47.1947 47.4524V31.8007L51.6873 29.8398V47.4524H47.1947ZM61.1471 47.4524V25.706L65.6397 23.7452V47.4524H61.1471ZM79.5085 31.8008H84.001V47.4526H79.5085V45.7037C78.3387 47.2406 76.6942 48.0002 74.5751 48.0002C72.5577 48.0002 70.8284 47.2052 69.3874 45.5977C67.9464 43.9901 67.2344 42.0292 67.2344 39.6974C67.2344 37.3655 67.9464 35.4046 69.3874 33.7971C70.8284 32.1895 72.5577 31.3945 74.5751 31.3945C76.6942 31.3945 78.3387 32.1542 79.5085 33.6911V31.8008ZM72.812 42.6652C73.5409 43.4425 74.4734 43.8311 75.5923 43.8311C76.7112 43.8311 77.6606 43.4425 78.3895 42.6652C79.1355 41.8879 79.5085 40.8986 79.5085 39.6797C79.5085 38.4608 79.1355 37.4715 78.3895 36.6942C77.6436 35.9169 76.7112 35.5283 75.5923 35.5283C74.4734 35.5283 73.5409 35.9169 72.812 36.6942C72.083 37.4715 71.71 38.4608 71.71 39.6797C71.71 40.8986 72.083 41.8879 72.812 42.6652ZM39.2437 39.3615L45.1434 31.8183H39.3454L35.3953 36.8177V23.7452L30.9028 25.5824V47.4524H35.3953V41.8524L39.7862 47.4524H45.6011L39.2437 39.3615ZM112.002 47.9823C109.73 47.9823 107.815 47.4523 106.272 46.3924C104.712 45.3324 103.627 43.9015 103 42.0643L106.865 39.7148C107.764 42.1526 109.527 43.3716 112.138 43.3716C113.409 43.3716 114.342 43.1242 114.918 42.6473C115.511 42.1703 115.8 41.5697 115.8 40.8454C115.8 39.9974 115.444 39.3438 114.715 38.8845C113.986 38.4252 112.697 37.9129 110.849 37.3653C109.815 37.0473 108.951 36.7293 108.239 36.4113C107.526 36.0933 106.814 35.6694 106.102 35.1217C105.39 34.5918 104.848 33.9028 104.475 33.0902C104.119 32.2599 103.932 31.306 103.932 30.2107C103.932 28.0555 104.678 26.3243 106.153 25.0347C107.628 23.7451 109.408 23.1091 111.477 23.1091C113.341 23.1091 114.969 23.5861 116.376 24.5224C117.783 25.4763 118.885 26.7836 119.665 28.4795L115.867 30.7583C114.952 28.7091 113.477 27.6845 111.477 27.6845C110.544 27.6845 109.798 27.9142 109.256 28.3558C108.713 28.7975 108.459 29.3804 108.459 30.087C108.459 30.8467 108.764 31.4473 109.357 31.9066C109.968 32.3659 111.121 32.8782 112.816 33.4258C113.254 33.5705 113.624 33.6941 113.932 33.7968C114.113 33.857 114.271 33.91 114.409 33.9558C114.765 34.0795 115.257 34.2738 115.884 34.5388C116.512 34.8038 116.986 35.0511 117.325 35.2807C117.664 35.5104 118.054 35.8107 118.495 36.1993C118.936 36.588 119.258 36.9766 119.495 37.4006C119.733 37.8069 119.919 38.3015 120.089 38.8845C120.258 39.4675 120.343 40.1034 120.343 40.7747C120.343 42.9829 119.58 44.7318 118.037 46.0391C116.478 47.3287 114.46 47.9823 112.002 47.9823ZM96 25.706V47.4523H100.493V23.7451L96 25.706Z" fill="#FFD500"/>
<path d="M20 752C20 749.791 21.7909 748 24 748H216C218.209 748 220 749.791 220 752V796C220 798.209 218.209 800 216 800H24C21.7909 800 20 798.209 20 796V752Z" fill="#005FF8"/>
<path d="M90.9844 779.188C94.2422 779.188 96.2656 776.945 96.2656 773.367V773.352C96.2656 769.781 94.2344 767.539 90.9844 767.539C87.7422 767.539 85.7031 769.773 85.7031 773.352V773.367C85.7031 776.953 87.7344 779.188 90.9844 779.188ZM90.9844 777.641C88.8438 777.641 87.4844 775.992 87.4844 773.367V773.352C87.4844 770.727 88.8516 769.086 90.9844 769.086C93.125 769.086 94.4766 770.734 94.4766 773.352V773.367C94.4766 775.969 93.1484 777.641 90.9844 777.641ZM97.875 779H99.5625V772.125H103.188V779H104.883V770.781H97.875V779ZM109.258 775.312L109.484 772.125H112.32V779H114.008V770.781H108L107.703 775.227C107.602 776.719 107.312 777.57 106.461 777.57C106.25 777.57 106.102 777.539 106.023 777.516V778.992C106.141 779.031 106.375 779.078 106.695 779.078C108.539 779.078 109.094 777.617 109.258 775.312ZM118.242 779.148C119.336 779.148 120.281 778.586 120.758 777.703H120.797V779H122.484V773.336C122.484 771.688 121.211 770.625 119.203 770.625C117.18 770.625 115.953 771.711 115.836 773.125L115.828 773.211H117.422L117.438 773.141C117.578 772.484 118.18 772.023 119.156 772.023C120.203 772.023 120.797 772.57 120.797 773.477V774.094L118.555 774.227C116.609 774.344 115.5 775.219 115.5 776.648V776.664C115.5 778.141 116.602 779.148 118.242 779.148ZM117.203 776.625V776.609C117.203 775.914 117.766 775.469 118.781 775.406L120.797 775.281V775.922C120.797 776.992 119.891 777.797 118.703 777.797C117.797 777.797 117.203 777.344 117.203 776.625ZM130.391 770.781H123.555V772.125H126.125V779H127.82V772.125H130.391V770.781ZM133.773 779.148C134.867 779.148 135.812 778.586 136.289 777.703H136.328V779H138.016V773.336C138.016 771.688 136.742 770.625 134.734 770.625C132.711 770.625 131.484 771.711 131.367 773.125L131.359 773.211H132.953L132.969 773.141C133.109 772.484 133.711 772.023 134.688 772.023C135.734 772.023 136.328 772.57 136.328 773.477V774.094L134.086 774.227C132.141 774.344 131.031 775.219 131.031 776.648V776.664C131.031 778.141 132.133 779.148 133.773 779.148ZM132.734 776.625V776.609C132.734 775.914 133.297 775.469 134.312 775.406L136.328 775.281V775.922C136.328 776.992 135.422 777.797 134.234 777.797C133.328 777.797 132.734 777.344 132.734 776.625Z" fill="white"/>
<path d="M185 761.5C178.1 761.5 172.5 767.1 172.5 774C172.5 780.9 178.1 786.5 185 786.5C191.9 786.5 197.5 780.9 197.5 774C197.5 767.1 191.9 761.5 185 761.5ZM186.25 780.25H183.75V777.75H186.25V780.25ZM186.25 775.25H183.75V767.75H186.25V775.25Z" fill="#D8E4FB" fill-opacity="0.56"/>
<defs>
<filter id="filter0_d_8_3942" x="212" y="209" width="24" height="24" filterUnits="userSpaceOnUse" color-interpolation-filters="sRGB">
<feFlood flood-opacity="0" result="BackgroundImageFix"/>
<feColorMatrix in="SourceAlpha" type="matrix" values="0 0 0 0 0 0 0 0 0 0 0 0 0 0 0 0 0 0 127 0" result="hardAlpha"/>
<feOffset dy="3"/>
<feGaussianBlur stdDeviation="4"/>
<feColorMatrix type="matrix" values="0 0 0 0 0.929412 0 0 0 0 0.854902 0 0 0 0 0.00392157 0 0 0 0.5 0"/>
<feBlend mode="normal" in2="BackgroundImageFix" result="effect1_dropShadow_8_3942"/>
<feBlend mode="normal" in="SourceGraphic" in2="effect1_dropShadow_8_3942" result="shape"/>
</filter>
<filter id="filter1_d_8_3942" x="212" y="253" width="24" height="24" filterUnits="userSpaceOnUse" color-interpolation-filters="sRGB">
<feFlood flood-opacity="0" result="BackgroundImageFix"/>
<feColorMatrix in="SourceAlpha" type="matrix" values="0 0 0 0 0 0 0 0 0 0 0 0 0 0 0 0 0 0 127 0" result="hardAlpha"/>
<feOffset dy="3"/>
<feGaussianBlur stdDeviation="4"/>
<feColorMatrix type="matrix" values="0 0 0 0 0.929412 0 0 0 0 0.854902 0 0 0 0 0.00392157 0 0 0 0.5 0"/>
<feBlend mode="normal" in2="BackgroundImageFix" result="effect1_dropShadow_8_3942"/>
<feBlend mode="normal" in="SourceGraphic" in2="effect1_dropShadow_8_3942" result="shape"/>
</filter>
</defs>
</svg>
